<?xml version="1.0" encoding="utf-8"?>
<!-- Generator: Adobe Illustrator 22.0.1, SVG Export Plug-In . SVG Version: 6.00 Build 0)  -->
<svg version="1.1" id="Layer_1" xmlns="http://www.w3.org/2000/svg" xmlns:xlink="http://www.w3.org/1999/xlink" x="0px" y="0px"
	 viewBox="0 0 150 150" style="enable-background:new 0 0 150 150;" xml:space="preserve">
<style type="text/css">
	.st0{display:none;fill:#FFFFFF;}
	.st1{fill:#FFFFFF;}
</style>
<path class="st0" d="M76.4,2.6c-0.5-0.4-1-0.5-1.6-0.5h-0.3c-0.6,0-1,0.2-1.5,0.5c-0.5,0.3-0.7,0.8-0.7,1.3c0,0.4,0.2,0.8,0.6,1.1
	c0.1,0.2,0.4,0.3,0.6,0.3l-0.1,0.4c0,0.3,0,0.6,0.1,0.8c-0.2,0-0.5,0.1-0.8,0.1l-0.4,0.1v1.6c0.1,1.3,0.1,2.4,0.1,3.4
	c0.1,1.3-0.1,2.5-0.6,3.6c-0.4,1.3-1.1,2.1-2,2.7c-0.8,0.5-2,0.9-3.6,1.3L64,19.7v0.5c-0.4,0.1-0.7,0.2-1,0.4l-0.3,0.2v2.7h1.1
	l0.3,0.5l1.4-0.2c0.8,0.1,1.4,0.4,1.7,1c0.2,0.5,0.1,1.1-0.1,1.6c-0.1,0.2-0.2,0.4-0.4,0.5l-1.6,0.2v0.8c-4.6,2.1-8.3,4.2-11,6.4
	c-2.5,1.9-4.9,4.3-7.3,7.4c-2.5,3.4-4.4,7.7-5.5,12.8c-0.6,2.6-0.8,4.8-0.8,6.8l0.3,0.3c0.1,0.2,0.3,0.4,0.3,0.7l-1.6,0.3
	C39.2,62.5,39,63,39,63.8c0,0.4,0,1.1,0.1,2L34,66.5h-1.6l-1.3,0.7v0.5L32,68c0.5,0.3,0.8,0.6,0.8,1l0.6,0.3l0.2,0.8l0.6,0.2
	l1.4,2.5v0.7l1.3,0.1l1.1,1.8l1.8,0.8v6.8l-0.1,0.2l-0.2,0.2l-0.1,1.3l0.4,0.3L39.5,86l-0.7,0.1v0.4l0.4,0.7L39,88.2l0.4,0.4v0.9
	l-0.3,0.1c-0.2,0.1-0.4,0.3-0.4,0.4c0,0.1,0.1,0.3,0.4,0.4c0.1,0.1,0.1,0.1,0.3,0.1l-0.7,44.7l-0.4,0.1v0.7h-0.6l0.1,1.9l-0.4-0.1
	v5.2l3.5,0.7l8.8-1.3V138l-0.4-0.2v-1.9l-0.3-0.1v-0.8h-1.2V97.5c0-2.1,0.5-3.8,1.4-5.1c0.6-0.7,1.3-1.2,2.1-1.4l0.1-0.7l0.5,0.2
	c0.4,0.2,0.8,0.5,1.3,0.7c1.1,0.9,1.8,1.9,1.9,3.1l0.3,1.1c0.1,1.2,0.3,2.8,0.3,4.9v38.7l-0.5,0.2l0.1,0.7h-0.8l0.1,1.9h-0.6
	l-0.1,5.2l9.7,1.4l3.4-1.6v-4.8l-0.4-0.1v-2l-0.6-0.2l0.1-43.3c0-1.4,0.5-2.8,1.5-4.1c1.2-1.5,3-2.5,5.2-2.7l0.3,0.9h3.2l0.3-0.9
	c2.3,0.2,4.1,1.2,5.3,2.7c1.1,1.3,1.5,2.7,1.5,4.1l0.1,43.3l-0.6,0.2v2l-0.4,0.1v4.8l3.4,1.6l9.7-1.4l-0.1-5.2h-0.6l0.1-1.9h-0.8
	l0.1-0.7l-0.5-0.2l0.1-38.7c0-2.1,0.1-3.7,0.4-4.9l0.2-1.1c0.1-1.2,0.8-2.2,2-3.1c0.4-0.2,0.8-0.5,1.2-0.7l0.6-0.2l0.1,0.7
	c0.8,0.2,1.6,0.7,2.2,1.4c0.8,1.2,1.3,2.9,1.3,5.1v37.6h-1.1v0.8l-0.4,0.1v1.9l-0.4,0.2v4.6l8.8,1.3l3.5-0.7v-5.2l-0.5,0.1l0.1-1.9
	h-0.6v-0.7l-0.4-0.1L110,90.5c0.1,0,0.2-0.1,0.4-0.1c0.1-0.2,0.3-0.3,0.3-0.4c0-0.2-0.1-0.3-0.3-0.4l-0.4-0.1v-0.9l0.4-0.4l-0.1-0.9
	l0.3-0.7v-0.4l-0.7-0.1l-0.1-1.1l0.3-0.3l-0.1-1.3l-0.2-0.2l-0.1-0.2l-0.1-6.8l1.7-0.8l1.1-1.8l1.3-0.1v-0.7l1.4-2.5l0.6-0.2
	l0.3-0.8l0.5-0.3c0.1-0.4,0.4-0.8,0.9-1c0.2-0.1,0.6-0.3,0.8-0.3v-0.5l-1.3-0.7h-1.6l-5.1-0.7c0-0.9,0.1-1.6,0.1-2
	c0-0.8-0.2-1.3-0.6-1.3l-1.6-0.3c0-0.2,0.1-0.5,0.3-0.7c0.1-0.2,0.1-0.2,0.3-0.3c0-1.9-0.3-4.2-0.8-6.8c-1.1-5.1-2.9-9.4-5.5-12.8
	c-2.4-3.1-4.8-5.6-7.3-7.4c-2.8-2.1-6.4-4.3-10.9-6.4v-0.8l-1.6-0.2c-0.2-0.2-0.4-0.3-0.5-0.5c-0.2-0.5-0.2-1-0.1-1.6
	c0.3-0.6,0.8-0.9,1.8-1c0.4,0,0.9,0.1,1.3,0.2l0.3-0.5h1.1v-2.7c0-0.1-0.1-0.1-0.2-0.2c-0.4-0.2-0.7-0.3-1.1-0.4l0.1-0.5
	c-0.7-0.1-1.4-0.2-2.3-0.4c-1.6-0.4-2.8-0.8-3.6-1.3c-0.9-0.6-1.6-1.4-2-2.7c-0.4-1.2-0.6-2.4-0.6-3.6c0.1-1,0.1-2.1,0.1-3.4V6.6
	c-0.4-0.1-0.8-0.2-1.1-0.2V5.7V5.3l0.6-0.3C76.8,4.7,77,4.3,77,3.8C77,3.3,76.8,2.9,76.4,2.6"/>
<path class="st1" d="M78.7,84.1v19.2c2-1.3,3.9-2.5,5.7-3.7c3.5-2.4,3.8-5.4,2.2-9.2C85.2,87.1,82.1,85.6,78.7,84.1 M71.4,83.8
	c-3.4,1.3-6.5,2.7-8.3,5.8c-1.3,2.3-1.9,4.9-0.5,7.4c0.6,1.1,1.6,2,2.6,2.7c2,1.4,4.1,2.7,6.2,4.1V83.8z M4.5,36.8v-0.2
	c4.3,0.4,8.6-0.1,12.7-1.4c7.6-2.3,14.2-6.5,20.2-11.6c3.6-3,6.9-6.3,10.4-9.5c1.7-1.5,3.5-2.9,5.9-2.2c1.8,0.5,2.9,1.8,3.9,3.2
	c1.1,1.6,2.1,3.3,3.2,4.9c2.3,3.4,5.6,4.8,10,4.6c-0.4-0.6-0.5-1-0.9-1.3c-0.6-0.5-1.3-0.9-1.9-1.4c-4.3-3.7-4.1-11.1,0.3-14.8
	c1.6-1.3,3.4-2,5.3-2.5h2.7c0.7,0.2,1.5,0.4,2.2,0.7c3.5,1.4,5.6,3.9,6.3,7.5c0.8,4.5-0.9,8.1-4.8,10.6c-0.4,0.2-0.5,0.8-0.9,1.3
	c5,0.3,8.4-1.7,10.7-5.6c1.1-1.8,2.2-3.5,3.6-5c0.7-0.9,1.8-1.6,2.9-2c1.8-0.7,3.4,0.2,4.8,1.3c2,1.7,3.9,3.4,5.8,5.2
	c5.6,5.3,11.6,10.2,18.6,13.8c6.3,3.2,13,5,20.1,4.3v0.2c-0.1,0.1-0.3,0.3-0.4,0.4c-3.3,5.3-8,7.8-14.2,7.1c-0.9-0.1-1.6,0-2.4,0.7
	c-0.6,0.6-1.4,1-2.2,1.3c-4.1,1.9-8.1,1.7-12.3,0.2c-0.4-0.1-0.9-0.2-1.2,0c-3.9,2.4-8,2.4-12.1,0.5c-0.8-0.4-1.4-0.3-2.2,0.2
	c-3.6,2-7.3,2.3-11.1,0.4c-0.3-0.2-0.9-0.1-1.2,0c-1.9,1-3.9,1.8-6.1,1.7c-0.4,0-0.8,0-1.4,0v24.1c0.5-0.1,1.1-0.2,1.6-0.4
	c5.4-1.4,10.9-2.7,16.3-4.2c4.2-1.2,8.4-2.6,12.3-4.7c0.5-0.3,1-0.7,1.8-1.3c-1.5-0.5-2.6-0.9-3.8-1.1c-6.1-1-12.2-1.3-18.3-1
	c-2.8,0.2-4.7-1-5.5-3.2c-0.5-1.5,0.1-3.1,1.6-3.6c1.1-0.4,2.3-0.8,3.4-0.8c5,0,10.1,0,15.1,0.3c3.5,0.2,6.9,0.9,10.3,1.6
	c2.6,0.5,5.1,1.7,6.9,3.8c2.5,2.8,2.9,5,1,7.8c-0.9,1.4-2.3,2.6-3.6,3.6c-3.2,2.4-7,3.8-10.8,4.9c-5.6,1.5-11.3,2.8-16.9,4.2
	c-0.5,0.1-1.1,0.3-1.8,0.5c0.5,0.4,0.7,0.6,1,0.8c3.3,2.6,5.5,5.9,6.7,9.9c1.1,3.6,0.3,6.9-1.9,9.9c-2.1,2.8-4.7,5-7.6,7
	c-1.6,1.1-3.3,2.1-4.9,3.2c0,0.1,0,0.2,0,0.2c0.1,0.1,0.3,0.3,0.4,0.4c3.5,2.6,7,5.3,9.7,8.9c3.1,4.1,3.9,8.5,1.5,13.2
	c-2.2,4.2-5.3,7.5-9.2,10.1c-1.3,0.9-2.6,1.7-4,2.5h-0.2c0.7-1.2,1.4-2.4,2-3.6c1.9-3.4,3.8-6.9,4.6-10.8c0.3-1.5,0.3-2.9-0.2-4.3
	c-1.1-3.4-3.5-5.9-6.2-8.1c-0.6-0.5-1.2-1-2.1-1.6c0,0.6-0.1,1-0.1,1.4c-0.1,5.7-0.2,11.4-0.2,17c0,0.6-0.1,1.2-0.2,1.8
	c-0.3,1.3-1.4,2.2-2.7,2.3c-1.3,0-2.5-0.8-2.9-2.1c-0.2-0.6-0.3-1.3-0.3-2c-0.1-5.9-0.2-11.8-0.2-17.7c0-0.3-0.1-0.6-0.1-0.9
	c-0.1-0.1-0.2-0.2-0.3-0.2c-2,1.9-4.1,3.6-5.9,5.6c-3.1,3.4-4,7.3-2.1,11.6c1.2,2.8,2.6,5.6,4,8.3c0.6,1.2,1.2,2.3,1.8,3.5
	c-0.5-0.3-1-0.7-1.5-0.9c-5-2.8-9-6.4-11.6-11.6c-1.8-3.6-2-7.2-0.1-10.8c1.6-3.1,3.9-5.5,6.5-7.7c1.7-1.4,3.4-2.7,5.2-4.1
	c-0.1-0.1-0.1-0.2-0.1-0.2c-0.5-0.3-1-0.6-1.5-0.9c-4.2-2.6-8.3-5.4-11.1-9.5c-1.6-2.3-2.5-4.9-1.9-7.8c0.9-4.7,3.2-8.6,7-11.6
	c0.3-0.2,0.6-0.5,1-0.9c-2.4-0.5-4.6-1-6.7-1.4c-6.3-1.4-12.6-2.9-18.5-5.6c-2.6-1.2-5.1-2.6-7-4.8c-1.3-1.5-2.3-3.3-1.9-5.4
	c0.4-2.1,1.7-3.7,3.4-4.9c3-2.2,6.5-3.3,10.2-3.6c6.3-0.5,12.6-0.8,18.9-1c1.8-0.1,3.6,0.5,5.3,0.9c1.6,0.4,2.2,2.3,1.6,3.8
	c-0.9,2.1-2.7,3.1-5.3,3c-6.1-0.3-12.3,0-18.3,1c-1.2,0.2-2.4,0.7-3.7,1c0,0.2,0,0.4,0,0.6c10.1,5.6,21.5,7.4,32.5,10.3V49.1
	c-2.9,0.3-5.4-0.4-7.7-1.8c-0.2-0.1-0.6,0-0.9,0.2c-3.7,1.9-7.4,1.6-11-0.3c-0.9-0.5-1.6-0.5-2.5-0.1c-3.9,1.7-7.7,1.8-11.5-0.4
	c-0.7-0.4-1.2-0.4-1.8-0.1c-4.7,1.8-9.4,1.7-13.7-1.2c-1.3-0.8-2.4-1.1-3.8-1c-4,0.4-7.6-0.8-10.5-3.7C6.5,39.5,5.6,38.1,4.5,36.8"
	/>
</svg>
