<?xml version="1.0" encoding="utf-8"?>
<!-- Generator: Adobe Illustrator 22.0.1, SVG Export Plug-In . SVG Version: 6.00 Build 0)  -->
<svg version="1.1" id="Layer_1" xmlns="http://www.w3.org/2000/svg" xmlns:xlink="http://www.w3.org/1999/xlink" x="0px" y="0px"
	 viewBox="0 0 150 150" style="enable-background:new 0 0 150 150;" xml:space="preserve">
<style type="text/css">
	.st0{fill:#FFFFFF;}
</style>
<path class="st0" d="M146,70.8c0,1.2-0.2,1.5-1.1,1.6c-2.2,0.3-4.4,0.6-6.6,0.9c-2.3,0.3-4.7,0.8-7,1.1c-1.3,0.2-2.7,0.3-4,0.5
	c-0.5,0.1-1,0.2-1.5,0.3l-1.5,0.3v3.9c0.3,0.1,0.6,0.2,0.8,0.3c0.6,0.3,1,0.9,1,1.4c0,0.7-0.7,1.3-1.6,1.7l-0.2,0.1v2.5
	c0,0.2,0.1,0.4,0.1,0.6v0c0.2,0.3,0.3,0.6,0.3,1v3.1c0,0,0,0,0,0c0.6,0.2,1.1,0.6,1.6,1c0.8,0.8,1.4,2,1.4,3.3l0,31.5
	c0,0.3-0.2,0.5-0.5,0.5c0,0-0.1,0-0.1,0l0,0.6l0,0.4c0,0.2-0.2,0.4-0.4,0.4c-0.3,0-0.5-0.2-0.5-0.5v-3.9c0,0-0.1,0-0.1,0
	c-0.1,0-0.2,0-0.2-0.1v6.5c0,0.3-0.2,0.5-0.5,0.5s-0.5-0.2-0.5-0.5v-7.3c-0.1,0-0.1,0.1-0.2,0.1c-0.1,0-0.2-0.1-0.3-0.1v5.6
	c0,0.3-0.2,0.5-0.5,0.5c-0.3,0-0.5-0.2-0.5-0.5v-5.4c0,0,0,0-0.1,0c-0.1,0-0.1,0-0.2,0v7.5c0,0.3-0.2,0.5-0.5,0.5h0
	c-0.2,0-0.4-0.1-0.4-0.3c0,0,0-0.1,0-0.1v-6.5c-0.1,0.1-0.2,0.1-0.3,0.1c-0.1,0-0.2,0-0.3-0.1v4.4c0,0.3-0.2,0.5-0.5,0.5
	c-0.3,0-0.5-0.2-0.5-0.5v-0.9c0-0.2,0.1-0.4,0-0.5c0,0,0,0,0,0c-0.1,0.1-0.2,0.1-0.3,0.1c-0.3,0-0.5-0.2-0.5-0.5v-4.1
	c-0.1,0.1-0.2,0.2-0.3,0.2c-0.2,0-0.3-0.1-0.4-0.2v2.8c0,0.3-0.2,0.5-0.5,0.5c-0.3,0-0.5-0.2-0.5-0.5V94.5c0-0.3,0-0.5,0.1-0.8
	c0,0,0,0,0-0.1c0.3-1.5,1.3-2.8,2.7-3.4c0,0,0,0,0.1,0V87c0-0.4,0.2-0.9,0.5-1.2c0,0,0,0,0,0c0-0.1,0.1-0.1,0.1-0.2v-2.7
	c-0.2-0.1-0.5-0.1-0.7-0.2c-0.8-0.3-1.3-0.9-1.3-1.5c0-0.2,0-0.4,0.1-0.5c0,0,0,0,0,0c0.3-0.5,0.9-1,1.8-1.2v-3.5c0,0-0.7,0-0.7,0h0
	c-4.7,0.8-9.3,1.6-14,2.4c-0.5,0.1-0.9,0.2-1.4,0.3c-0.5,0.1-1,0.2-1.5,0.3c0,0,0,0,0,0c3.8,2.3,9.4,7.1,11,16.2
	c0.1,0.4,0.2,0.7,0.2,1.1c0,0.2,0,0.3,0,0.4c0,0.2-0.2,0.4-0.6,0.4c-0.4,0-0.8,0-1.2,0c-3.5-0.2-6.9,0.3-10.3,0.9
	c-2.8,0.5-5.5,1.1-8.3,1.9c-0.3,0.1-0.6,0.2-0.9,0.3c-0.1,0-0.2,0.1-0.3,0.1c-1.6,0.5-3.1,1.1-4.5,1.7c-0.1,0-0.2,0.1-0.3,0.1
	c-1.2,0.5-2.4,1-3.6,1.7c0,0,0,0,0,0c-3.6,1.7-7.3,3.9-11.1,6.7c-0.4,0.3-0.8,0.7-1.2,1c-0.5,0.4-0.8,0.6-1.4,0.1l0,0
	c-3-2.9-6.6-5-10.3-6.9c0,0,0,0,0,0c-5.8-2.6-14.6-5.3-27.8-7.1c-0.1,0-0.2,0-0.2,0c-0.5-0.1-0.9-0.1-1.4-0.2
	c-0.5-0.1-1.1-0.1-1.6-0.2c-0.2,0-0.4,0-0.6-0.1c2.3-9.7,8.4-15.5,12.8-18.6c-0.6-0.3-1.2-0.6-1.9-0.8C34,75.6,27,73.7,20,71.9
	c-4.9-1.3-9.8-2.6-14.7-3.9c-0.4-0.1-1.1-0.3-1.2-0.6c-0.2-0.6-0.1-1.3-0.1-2c0-0.1,0.3-0.3,0.5-0.3c1.8-0.3,3.6-0.6,5.4-0.8
	c3.3-0.5,6.7-1.1,10-1.6c2.3-0.3,4.7-0.6,7-0.9c2.4-0.3,4.8-0.8,7.2-1.1c2.3-0.3,4.6-0.6,6.8-0.9c2.1-0.3,4.1-0.6,6.2-0.9
	c2.5-0.4,4.9-0.7,7.4-1.1c2.2-0.3,4.4-0.7,6.6-1.1c2.1-0.3,4.3-0.6,6.4-0.9c2.3-0.3,4.6-0.4,6.8-0.9c2.5-0.6,4.9-0.5,7.3,0.1
	c5.2,1.3,10.4,2.5,15.5,3.7c5.1,1.2,10.1,2.4,15.1,3.6c7.7,1.8,15.4,3.6,23.1,5.4c3.1,0.7,6.3,1.5,9.5,2.1
	C146,69.7,146,70.1,146,70.8"/>
</svg>
