<?xml version="1.0" encoding="utf-8"?>
<!-- Generator: Adobe Illustrator 22.0.1, SVG Export Plug-In . SVG Version: 6.00 Build 0)  -->
<svg version="1.1" id="Layer_1" xmlns="http://www.w3.org/2000/svg" xmlns:xlink="http://www.w3.org/1999/xlink" x="0px" y="0px"
	 viewBox="0 0 145.5 57" style="enable-background:new 0 0 145.5 57;" xml:space="preserve">
<style type="text/css">
	.st0{opacity:0.2;}
	.st1{fill:#4F2683;}
	.st2{fill:none;stroke:#4F2683;stroke-width:0.1;stroke-miterlimit:10;}
	.st3{opacity:0.2;fill:#4F2683;}
	.st4{opacity:0.2;fill:none;stroke:#4F2683;stroke-width:0.1;stroke-miterlimit:10;}
</style>
<g class="st0">
	<path class="st1" d="M1,27.6c-0.6,0.4-0.7,0.9-0.7,1.6C0.3,28.5,0.5,28,1,27.6c0.2-0.2,0.4-0.3,0.6-0.3v0C1.4,27.3,1.2,27.4,1,27.6
		"/>
	<path class="st2" d="M1,27.6c-0.6,0.4-0.7,0.9-0.7,1.6C0.3,28.5,0.5,28,1,27.6c0.2-0.2,0.4-0.3,0.6-0.3v0C1.4,27.3,1.2,27.4,1,27.6
		z"/>
	<path class="st1" d="M1,27.6c-0.6,0.4-0.7,0.9-0.7,1.6c0,0.9-0.1,1.9-0.2,2.8l1.5-4.6C1.4,27.3,1.2,27.4,1,27.6"/>
	<path class="st2" d="M1,27.6c-0.6,0.4-0.7,0.9-0.7,1.6c0,0.9-0.1,1.9-0.2,2.8l1.5-4.6C1.4,27.3,1.2,27.4,1,27.6z"/>
	<path class="st1" d="M3.9,27.2L3.9,27.2c-0.4,0.1-0.8,0.2-1.1,0.3C3.1,27.5,3.6,27.4,3.9,27.2"/>
	<path class="st2" d="M3.9,27.2L3.9,27.2c-0.4,0.1-0.8,0.2-1.1,0.3C3.1,27.5,3.6,27.4,3.9,27.2z"/>
	<path class="st1" d="M1.1,32.9L1.1,32.9c0.3,0,0.7,0,1,0v0C1.8,32.9,1.4,32.9,1.1,32.9"/>
	<path class="st2" d="M1.1,32.9L1.1,32.9c0.3,0,0.7,0,1,0v0C1.8,32.9,1.4,32.9,1.1,32.9z"/>
	<path class="st1" d="M2.8,27.5l-1.7,5.4c0.3,0,0.7,0,1,0l1.8-5.6C3.6,27.4,3.1,27.5,2.8,27.5"/>
	<path class="st2" d="M2.8,27.5l-1.7,5.4c0.3,0,0.7,0,1,0l1.8-5.6C3.6,27.4,3.1,27.5,2.8,27.5z"/>
	<path class="st1" d="M7.1,22c0.1-0.1,0.1-0.1,0.2-0.1C7.2,21.9,7.1,22,7.1,22c-0.1,0.1-0.2,0.2-0.3,0.3C6.9,22.2,7,22.1,7.1,22"/>
	<path class="st2" d="M7.1,22c0.1-0.1,0.1-0.1,0.2-0.1C7.2,21.9,7.1,22,7.1,22c-0.1,0.1-0.2,0.2-0.3,0.3C6.9,22.2,7,22.1,7.1,22z"/>
	<path class="st1" d="M3.4,32.9L3.4,32.9c0.3,0,0.7,0,1,0H3.4z"/>
	<path class="st2" d="M3.4,32.9L3.4,32.9c0.3,0,0.7,0,1,0H3.4z"/>
	<path class="st1" d="M7.3,21.9c0.1-0.1,0.2-0.1,0.3-0.2C7.5,21.8,7.4,21.8,7.3,21.9"/>
	<path class="st2" d="M7.3,21.9c0.1-0.1,0.2-0.1,0.3-0.2C7.5,21.8,7.4,21.8,7.3,21.9z"/>
	<path class="st1" d="M7.3,21.9c-0.1,0-0.2,0.1-0.2,0.1c-0.1,0.1-0.2,0.2-0.3,0.3L3.4,32.9h1l3.6-11.3c-0.1,0.1-0.3,0.1-0.4,0.2
		C7.5,21.8,7.4,21.8,7.3,21.9"/>
	<path class="st2" d="M7.3,21.9c-0.1,0-0.2,0.1-0.2,0.1c-0.1,0.1-0.2,0.2-0.3,0.3L3.4,32.9h1l3.6-11.3c-0.1,0.1-0.3,0.1-0.4,0.2
		C7.5,21.8,7.4,21.8,7.3,21.9z"/>
	<path class="st1" d="M9.7,20.8c0.3,0,0.7-0.1,1-0.1C10.4,20.7,10,20.8,9.7,20.8c0,0-0.1,0-0.1,0v0C9.6,20.8,9.7,20.8,9.7,20.8"/>
	<path class="st2" d="M9.7,20.8c0.3,0,0.7-0.1,1-0.1C10.4,20.7,10,20.8,9.7,20.8c0,0-0.1,0-0.1,0v0C9.6,20.8,9.7,20.8,9.7,20.8z"/>
	<path class="st1" d="M6.6,32.9c0.1,0,0.2,0,0.2,0C6.7,32.9,6.7,32.9,6.6,32.9"/>
	<path class="st2" d="M6.6,32.9c0.1,0,0.2,0,0.2,0C6.7,32.9,6.7,32.9,6.6,32.9z"/>
</g>
<path class="st3" d="M5.8,32.9h0.8H5.8z"/>
<polygon class="st4" points="5.8,32.9 5.8,32.9 6.6,32.9 "/>
<g class="st0">
	<path class="st1" d="M9.7,20.8c0,0-0.1,0-0.1,0L5.8,32.9h0.8c0.1,0,0.2,0,0.2,0l3.9-12.2C10.4,20.7,10,20.8,9.7,20.8"/>
	<path class="st2" d="M9.7,20.8c0,0-0.1,0-0.1,0L5.8,32.9h0.8c0.1,0,0.2,0,0.2,0l3.9-12.2C10.4,20.7,10,20.8,9.7,20.8z"/>
	<path class="st1" d="M8.1,32.9L8.1,32.9c0.3,0,0.7,0,1,0v0C8.8,32.9,8.5,32.9,8.1,32.9"/>
	<path class="st2" d="M8.1,32.9L8.1,32.9c0.3,0,0.7,0,1,0v0C8.8,32.9,8.5,32.9,8.1,32.9z"/>
	<path class="st1" d="M12.4,20.8c0.2,0.1,0.4,0.1,0.6,0.1C12.8,20.9,12.6,20.9,12.4,20.8c-0.1-0.1-0.3-0.1-0.4-0.1
		C12.1,20.7,12.2,20.7,12.4,20.8"/>
	<path class="st2" d="M12.4,20.8c0.2,0.1,0.4,0.1,0.6,0.1C12.8,20.9,12.6,20.9,12.4,20.8c-0.1-0.1-0.3-0.1-0.4-0.1
		C12.1,20.7,12.2,20.7,12.4,20.8z"/>
	<path class="st1" d="M12.4,20.8c-0.1-0.1-0.3-0.1-0.4-0.1L8.1,32.9c0.3,0,0.7,0,1,0l3.8-12C12.8,20.9,12.6,20.9,12.4,20.8"/>
	<path class="st2" d="M12.4,20.8c-0.1-0.1-0.3-0.1-0.4-0.1L8.1,32.9c0.3,0,0.7,0,1,0l3.8-12C12.8,20.9,12.6,20.9,12.4,20.8z"/>
	<path class="st1" d="M14.8,19.7c0.3-0.1,0.5-0.4,0.8-0.6C15.4,19.3,15.2,19.6,14.8,19.7c-0.1,0-0.2,0.1-0.3,0.1v0
		C14.7,19.8,14.8,19.7,14.8,19.7"/>
	<path class="st2" d="M14.8,19.7c0.3-0.1,0.5-0.4,0.8-0.6C15.4,19.3,15.2,19.6,14.8,19.7c-0.1,0-0.2,0.1-0.3,0.1v0
		C14.7,19.8,14.8,19.7,14.8,19.7z"/>
	<path class="st1" d="M10.4,32.9L10.4,32.9c0.3,0,0.7,0,1,0v0C11.1,32.9,10.8,32.9,10.4,32.9"/>
	<path class="st2" d="M10.4,32.9L10.4,32.9c0.3,0,0.7,0,1,0v0C11.1,32.9,10.8,32.9,10.4,32.9z"/>
	<path class="st1" d="M16,18.8L16,18.8c-0.1,0.1-0.2,0.2-0.3,0.3C15.7,19,15.8,18.9,16,18.8"/>
	<path class="st2" d="M16,18.8L16,18.8c-0.1,0.1-0.2,0.2-0.3,0.3C15.7,19,15.8,18.9,16,18.8z"/>
	<path class="st1" d="M15.6,19.1c-0.2,0.2-0.5,0.5-0.8,0.6c-0.1,0-0.2,0.1-0.3,0.1l-4.1,13.1c0.3,0,0.7,0,1,0L16,18.8
		C15.8,18.9,15.7,19,15.6,19.1"/>
	<path class="st2" d="M15.6,19.1c-0.2,0.2-0.5,0.5-0.8,0.6c-0.1,0-0.2,0.1-0.3,0.1l-4.1,13.1c0.3,0,0.7,0,1,0L16,18.8
		C15.8,18.9,15.7,19,15.6,19.1z"/>
	<path class="st1" d="M12.8,32.9L12.8,32.9c0.3,0,0.7,0,1,0v0C13.5,32.9,13.1,32.9,12.8,32.9"/>
	<path class="st2" d="M12.8,32.9L12.8,32.9c0.3,0,0.7,0,1,0v0C13.5,32.9,13.1,32.9,12.8,32.9z"/>
	<path class="st1" d="M18.5,17.2c-0.4,0-0.7,0.1-0.9,0.3C17.9,17.3,18.1,17.1,18.5,17.2"/>
	<path class="st2" d="M18.5,17.2c-0.4,0-0.7,0.1-0.9,0.3C17.9,17.3,18.1,17.1,18.5,17.2z"/>
	<path class="st1" d="M18.9,17L18.9,17c-0.1,0.1-0.2,0.2-0.3,0.2C18.7,17.2,18.8,17.1,18.9,17"/>
	<path class="st2" d="M18.9,17L18.9,17c-0.1,0.1-0.2,0.2-0.3,0.2C18.7,17.2,18.8,17.1,18.9,17z"/>
	<path class="st1" d="M18.5,17.2c-0.4,0-0.7,0.1-0.9,0.3l-4.9,15.4c0.3,0,0.7,0,1.1,0l5-15.9C18.8,17.1,18.7,17.2,18.5,17.2"/>
	<path class="st2" d="M18.5,17.2c-0.4,0-0.7,0.1-0.9,0.3l-4.9,15.4c0.3,0,0.7,0,1.1,0l5-15.9C18.8,17.1,18.7,17.2,18.5,17.2z"/>
	<path class="st1" d="M21.1,16c-0.2,0-0.4,0-0.6,0C20.7,16,20.9,16,21.1,16"/>
	<path class="st2" d="M21.1,16c-0.2,0-0.4,0-0.6,0C20.7,16,20.9,16,21.1,16z"/>
	<path class="st1" d="M15.1,32.9L15.1,32.9c0.3,0,0.7,0,1,0C15.8,32.9,15.5,32.9,15.1,32.9"/>
	<path class="st2" d="M15.1,32.9L15.1,32.9c0.3,0,0.7,0,1,0C15.8,32.9,15.5,32.9,15.1,32.9z"/>
	<path class="st1" d="M21.5,16.1L21.5,16.1c-0.1-0.1-0.3-0.1-0.4-0.1C21.2,16,21.3,16.1,21.5,16.1"/>
	<path class="st2" d="M21.5,16.1L21.5,16.1c-0.1-0.1-0.3-0.1-0.4-0.1C21.2,16,21.3,16.1,21.5,16.1z"/>
	<path class="st1" d="M21.1,16c-0.2,0-0.4,0-0.6,0l-5.3,16.8c0.4,0,0.7,0,1,0l5.3-16.7C21.3,16.1,21.2,16,21.1,16"/>
	<path class="st2" d="M21.1,16c-0.2,0-0.4,0-0.6,0l-5.3,16.8c0.4,0,0.7,0,1,0l5.3-16.7C21.3,16.1,21.2,16,21.1,16z"/>
	<path class="st1" d="M24.7,12.9c0,0,0,0.1,0,0.1c0.1-0.1,0.1-0.2,0.2-0.3c-0.1,0.1-0.1,0.2-0.2,0.3C24.7,13,24.7,13,24.7,12.9"/>
	<path class="st2" d="M24.7,12.9c0,0,0,0.1,0,0.1c0.1-0.1,0.1-0.2,0.2-0.3c-0.1,0.1-0.1,0.2-0.2,0.3C24.7,13,24.7,13,24.7,12.9z"/>
	<path class="st1" d="M24.3,12.7c-0.1,0-0.3-0.1-0.4-0.1C24,12.7,24.2,12.7,24.3,12.7"/>
	<path class="st2" d="M24.3,12.7c-0.1,0-0.3-0.1-0.4-0.1C24,12.7,24.2,12.7,24.3,12.7z"/>
	<path class="st1" d="M17.5,32.9L17.5,32.9c0.3,0,0.7,0,1,0C18.2,32.9,17.8,32.9,17.5,32.9"/>
	<path class="st2" d="M17.5,32.9L17.5,32.9c0.3,0,0.7,0,1,0C18.2,32.9,17.8,32.9,17.5,32.9z"/>
	<path class="st1" d="M24.7,12.9c0,0,0-0.1,0-0.1c-0.1,0-0.2,0-0.3,0c0.1,0,0.2,0,0.3,0C24.6,12.8,24.6,12.9,24.7,12.9"/>
	<path class="st2" d="M24.7,12.9c0,0,0-0.1,0-0.1c-0.1,0-0.2,0-0.3,0c0.1,0,0.2,0,0.3,0C24.6,12.8,24.6,12.9,24.7,12.9z"/>
	<path class="st1" d="M24.7,12.9c0,0,0-0.1,0-0.1c-0.1,0-0.2,0-0.3,0c-0.1,0-0.3-0.1-0.4-0.1l-6.4,20.2c0.3,0,0.7,0,1,0l6.4-20.1
		c-0.1,0.1-0.1,0.2-0.2,0.3C24.7,13,24.7,13,24.7,12.9"/>
	<path class="st2" d="M24.7,12.9c0,0,0-0.1,0-0.1c-0.1,0-0.2,0-0.3,0c-0.1,0-0.3-0.1-0.4-0.1l-6.4,20.2c0.3,0,0.7,0,1,0l6.4-20.1
		c-0.1,0.1-0.1,0.2-0.2,0.3C24.7,13,24.7,13,24.7,12.9z"/>
	<path class="st1" d="M19.8,32.8L19.8,32.8c0.4-0.1,0.8-0.2,1.1-0.2C20.6,32.7,20.2,32.8,19.8,32.8"/>
	<path class="st2" d="M19.8,32.8L19.8,32.8c0.4-0.1,0.8-0.2,1.1-0.2C20.6,32.7,20.2,32.8,19.8,32.8z"/>
	<path class="st1" d="M27.6,10.1c0,0-0.1,0-0.1,0c-0.2,0.1-0.3,0.2-0.5,0.3c0.2-0.1,0.3-0.2,0.5-0.3C27.5,10.1,27.5,10.1,27.6,10.1"
		/>
	<path class="st2" d="M27.6,10.1c0,0-0.1,0-0.1,0c-0.2,0.1-0.3,0.2-0.5,0.3c0.2-0.1,0.3-0.2,0.5-0.3C27.5,10.1,27.5,10.1,27.6,10.1z
		"/>
	<path class="st1" d="M27,10.4C27,10.4,26.9,10.4,27,10.4C26.9,10.4,27,10.4,27,10.4"/>
	<path class="st2" d="M27,10.4C27,10.4,26.9,10.4,27,10.4C26.9,10.4,27,10.4,27,10.4z"/>
	<path class="st1" d="M27.6,10.1c0.1,0,0.3,0.1,0.4,0.1C27.9,10.2,27.7,10.1,27.6,10.1"/>
	<path class="st2" d="M27.6,10.1c0.1,0,0.3,0.1,0.4,0.1C27.9,10.2,27.7,10.1,27.6,10.1z"/>
	<path class="st1" d="M27.6,10.1c0,0-0.1,0-0.1,0c-0.2,0.1-0.3,0.2-0.5,0.3c0,0,0,0-0.1,0l-7.1,22.4c0.4-0.1,0.8-0.2,1.1-0.2
		L28,10.2C27.9,10.2,27.7,10.1,27.6,10.1"/>
	<path class="st2" d="M27.6,10.1c0,0-0.1,0-0.1,0c-0.2,0.1-0.3,0.2-0.5,0.3c0,0,0,0-0.1,0l-7.1,22.4c0.4-0.1,0.8-0.2,1.1-0.2
		L28,10.2C27.9,10.2,27.7,10.1,27.6,10.1z"/>
	<path class="st1" d="M28.9,12.2c0.2,0,0.3,0,0.5-0.1c0.2-0.1,0.4-0.2,0.5-0.3v0c-0.2,0.1-0.3,0.2-0.5,0.3
		C29.2,12.1,29,12.1,28.9,12.2"/>
	<path class="st2" d="M28.9,12.2c0.2,0,0.3,0,0.5-0.1c0.2-0.1,0.4-0.2,0.5-0.3v0c-0.2,0.1-0.3,0.2-0.5,0.3
		C29.2,12.1,29,12.1,28.9,12.2z"/>
	<path class="st1" d="M22.4,32.1L22.4,32.1c0.4-0.1,0.8-0.3,1.2-0.4v0C23.2,31.8,22.8,32,22.4,32.1"/>
	<path class="st2" d="M22.4,32.1L22.4,32.1c0.4-0.1,0.8-0.3,1.2-0.4v0C23.2,31.8,22.8,32,22.4,32.1z"/>
	<path class="st1" d="M28.9,12.2c0,0-0.1,0-0.1,0C28.8,12.2,28.8,12.2,28.9,12.2"/>
	<path class="st2" d="M28.9,12.2c0,0-0.1,0-0.1,0C28.8,12.2,28.8,12.2,28.9,12.2z"/>
	<path class="st1" d="M28.9,12.2c0,0-0.1,0-0.1,0l-6.3,20c0.4-0.2,0.8-0.3,1.2-0.4l6.3-19.9c-0.2,0.1-0.3,0.2-0.5,0.3
		C29.2,12.1,29,12.1,28.9,12.2"/>
	<path class="st2" d="M28.9,12.2c0,0-0.1,0-0.1,0l-6.3,20c0.4-0.2,0.8-0.3,1.2-0.4l6.3-19.9c-0.2,0.1-0.3,0.2-0.5,0.3
		C29.2,12.1,29,12.1,28.9,12.2z"/>
	<path class="st1" d="M33.2,8.7L33.2,8.7c-0.5,0.1-0.9,0.2-1.2,0.5C32.4,8.9,32.8,8.8,33.2,8.7"/>
	<path class="st2" d="M33.2,8.7L33.2,8.7c-0.5,0.1-0.9,0.2-1.2,0.5C32.4,8.9,32.8,8.8,33.2,8.7z"/>
	<path class="st1" d="M26,31.3c-0.1,0.1-0.2,0.2-0.3,0.2c-0.3,0-0.5,0-0.7,0h0c0.2,0,0.5,0,0.7,0C25.8,31.5,25.9,31.4,26,31.3
		C26,31.3,26,31.3,26,31.3L26,31.3C26,31.3,26,31.3,26,31.3"/>
	<path class="st2" d="M26,31.3c-0.1,0.1-0.2,0.2-0.3,0.2c-0.3,0-0.5,0-0.7,0h0c0.2,0,0.5,0,0.7,0C25.8,31.5,25.9,31.4,26,31.3
		C26,31.3,26,31.3,26,31.3L26,31.3C26,31.3,26,31.3,26,31.3z"/>
	<path class="st1" d="M32,9.1l-7.1,22.3c0.2,0,0.5,0,0.7,0c0.1,0,0.2-0.1,0.3-0.2c0,0,0,0,0.1,0l7.2-22.6C32.8,8.8,32.4,8.9,32,9.1"
		/>
	<path class="st2" d="M32,9.1l-7.1,22.3c0.2,0,0.5,0,0.7,0c0.1,0,0.2-0.1,0.3-0.2c0,0,0,0,0.1,0l7.2-22.6C32.8,8.8,32.4,8.9,32,9.1z
		"/>
	<path class="st1" d="M28.1,30.1c0.2-0.1,0.5-0.2,0.7-0.3C28.6,29.9,28.3,30,28.1,30.1"/>
	<path class="st2" d="M28.1,30.1c0.2-0.1,0.5-0.2,0.7-0.3C28.6,29.9,28.3,30,28.1,30.1z"/>
	<path class="st1" d="M27.6,30.3L27.6,30.3c0.1-0.1,0.3-0.1,0.5-0.2C27.9,30.2,27.8,30.2,27.6,30.3"/>
	<path class="st2" d="M27.6,30.3L27.6,30.3c0.1-0.1,0.3-0.1,0.5-0.2C27.9,30.2,27.8,30.2,27.6,30.3z"/>
	<path class="st1" d="M35.6,8.4L35.6,8.4c-0.3-0.2-0.6-0.2-1-0.2C35,8.2,35.3,8.2,35.6,8.4"/>
	<path class="st2" d="M35.6,8.4L35.6,8.4c-0.3-0.2-0.6-0.2-1-0.2C35,8.2,35.3,8.2,35.6,8.4z"/>
	<path class="st1" d="M34.6,8.3l-7,22c0.1-0.1,0.3-0.1,0.5-0.2c0.2-0.1,0.5-0.2,0.7-0.3l6.8-21.4C35.3,8.2,35,8.2,34.6,8.3"/>
	<path class="st2" d="M34.6,8.3l-7,22c0.1-0.1,0.3-0.1,0.5-0.2c0.2-0.1,0.5-0.2,0.7-0.3l6.8-21.4C35.3,8.2,35,8.2,34.6,8.3z"/>
	<path class="st1" d="M38.1,7.9C38.1,7.9,38.1,7.9,38.1,7.9L38.1,7.9C38.1,7.9,38.1,7.9,38.1,7.9c-0.3,0.6-0.7,1-1.4,1.1
		C37.4,8.9,37.8,8.5,38.1,7.9"/>
	<path class="st2" d="M38.1,7.9C38.1,7.9,38.1,7.9,38.1,7.9L38.1,7.9C38.1,7.9,38.1,7.9,38.1,7.9c-0.3,0.6-0.7,1-1.4,1.1
		C37.4,8.9,37.8,8.5,38.1,7.9z"/>
	<path class="st1" d="M31.5,28.8c-0.1,0.5-0.4,0.6-0.8,0.6C31.1,29.4,31.4,29.3,31.5,28.8C31.5,28.8,31.5,28.8,31.5,28.8L31.5,28.8
		C31.5,28.8,31.5,28.8,31.5,28.8"/>
	<path class="st2" d="M31.5,28.8c-0.1,0.5-0.4,0.6-0.8,0.6C31.1,29.4,31.4,29.3,31.5,28.8C31.5,28.8,31.5,28.8,31.5,28.8L31.5,28.8
		C31.5,28.8,31.5,28.8,31.5,28.8z"/>
	<path class="st1" d="M30.3,29.4L30.3,29.4c0.2,0,0.3,0,0.5,0C30.6,29.4,30.4,29.4,30.3,29.4"/>
	<path class="st2" d="M30.3,29.4L30.3,29.4c0.2,0,0.3,0,0.5,0C30.6,29.4,30.4,29.4,30.3,29.4z"/>
	<path class="st1" d="M38.1,7.9c-0.3,0.6-0.7,1-1.4,1.1l-6.5,20.4c0.2,0,0.3,0,0.5,0c0.4,0,0.7-0.1,0.8-0.6c0,0,0,0,0,0L38.1,7.9
		C38.1,7.9,38.1,7.9,38.1,7.9"/>
	<path class="st2" d="M38.1,7.9c-0.3,0.6-0.7,1-1.4,1.1l-6.5,20.4c0.2,0,0.3,0,0.5,0c0.4,0,0.7-0.1,0.8-0.6c0,0,0,0,0,0L38.1,7.9
		C38.1,7.9,38.1,7.9,38.1,7.9z"/>
	<path class="st1" d="M33,28.9c0.3,0,0.5-0.1,0.8-0.1C33.6,28.8,33.3,28.9,33,28.9"/>
	<path class="st2" d="M33,28.9c0.3,0,0.5-0.1,0.8-0.1C33.6,28.8,33.3,28.9,33,28.9z"/>
	<path class="st1" d="M32.8,28.9L32.8,28.9c0.1,0,0.2,0,0.3,0C32.9,28.9,32.8,28.9,32.8,28.9"/>
	<path class="st2" d="M32.8,28.9L32.8,28.9c0.1,0,0.2,0,0.3,0C32.9,28.9,32.8,28.9,32.8,28.9z"/>
	<path class="st1" d="M41.8,3.8L41.8,3.8C41.4,3.7,41,3.7,40.7,4C41,3.7,41.4,3.7,41.8,3.8"/>
	<path class="st2" d="M41.8,3.8L41.8,3.8C41.4,3.7,41,3.7,40.7,4C41,3.7,41.4,3.7,41.8,3.8z"/>
	<path class="st1" d="M40.7,4l-7.9,24.9c0.1,0,0.2,0,0.3,0c0.3,0,0.5-0.1,0.8-0.1l7.9-25C41.4,3.7,41,3.7,40.7,4"/>
	<path class="st2" d="M40.7,4l-7.9,24.9c0.1,0,0.2,0,0.3,0c0.3,0,0.5-0.1,0.8-0.1l7.9-25C41.4,3.7,41,3.7,40.7,4z"/>
</g>
<path class="st3" d="M44.3,0.1h1H44.3z"/>
<polygon class="st4" points="45.3,0.1 45.3,0.1 44.3,0.1 "/>
<g class="st0">
	<path class="st1" d="M44.3,0.1l-9.1,28.8c0.3,0,0.7,0,1,0l9.2-28.9H44.3z"/>
	<path class="st2" d="M44.3,0.1l-9.1,28.8c0.3,0,0.7,0,1,0l9.2-28.9H44.3z"/>
	<path class="st1" d="M47.7,0.1L47.7,0.1h-1C47,0.1,47.3,0.1,47.7,0.1"/>
	<path class="st2" d="M47.7,0.1L47.7,0.1h-1C47,0.1,47.3,0.1,47.7,0.1z"/>
	<path class="st1" d="M46.6,0.1L37.4,29c0.3,0,0.7,0,1,0l9.2-29C47.3,0.1,47,0.1,46.6,0.1"/>
	<path class="st2" d="M46.6,0.1L37.4,29c0.3,0,0.7,0,1,0l9.2-29C47.3,0.1,47,0.1,46.6,0.1z"/>
</g>
<path class="st3" d="M48.9,0.1h1H48.9z"/>
<polygon class="st4" points="50,0.1 50,0.1 48.9,0.1 "/>
<g class="st0">
	<path class="st1" d="M48.9,0.1l-9.2,29c0.3,0,0.7,0,1,0L50,0.1H48.9z"/>
	<path class="st2" d="M48.9,0.1l-9.2,29c0.3,0,0.7,0,1,0L50,0.1H48.9z"/>
	<path class="st1" d="M52.3,0.1L52.3,0.1h-1C51.6,0.1,52,0.1,52.3,0.1"/>
	<path class="st2" d="M52.3,0.1L52.3,0.1h-1C51.6,0.1,52,0.1,52.3,0.1z"/>
	<path class="st1" d="M51.3,0.1L42,29.2c0.3,0,0.7,0,1,0l9.3-29.2C52,0.1,51.6,0.1,51.3,0.1"/>
	<path class="st2" d="M51.3,0.1L42,29.2c0.3,0,0.7,0,1,0l9.3-29.2C52,0.1,51.6,0.1,51.3,0.1z"/>
	<path class="st1" d="M54.7,0.1L54.7,0.1c-0.4,0-0.7,0-1,0H54.7z"/>
	<path class="st2" d="M54.7,0.1L54.7,0.1c-0.4,0-0.7,0-1,0H54.7z"/>
	<path class="st1" d="M53.6,0.1l-9.3,29.2c0.3,0,0.7,0,1,0l9.3-29.3H53.6z"/>
	<path class="st2" d="M53.6,0.1l-9.3,29.2c0.3,0,0.7,0,1,0l9.3-29.3H53.6z"/>
</g>
<path class="st3" d="M56,0.1h1H56z"/>
<polygon class="st4" points="57,0.1 57,0.1 56,0.1 "/>
<g class="st0">
	<path class="st1" d="M56,0.1l-9.3,29.3c0.3,0,0.7,0,1,0L57,0.1H56z"/>
	<path class="st2" d="M56,0.1l-9.3,29.3c0.3,0,0.7,0,1,0L57,0.1H56z"/>
	<path class="st1" d="M59.3,0.1L59.3,0.1h-1C58.7,0.1,59,0.1,59.3,0.1"/>
	<path class="st2" d="M59.3,0.1L59.3,0.1h-1C58.7,0.1,59,0.1,59.3,0.1z"/>
	<path class="st1" d="M58.3,0.1L49,29.5c0.3,0,0.7,0,1,0l9.4-29.5C59,0.1,58.7,0.1,58.3,0.1"/>
	<path class="st2" d="M58.3,0.1L49,29.5c0.3,0,0.7,0,1,0l9.4-29.5C59,0.1,58.7,0.1,58.3,0.1z"/>
</g>
<rect x="60.6" y="0.1" class="st3" width="1" height="0"/>
<path class="st4" d="M61.7,0.1h-1H61.7z"/>
<g class="st0">
	<path class="st1" d="M60.6,0.1l-9.4,29.6c0.3,0,0.7,0,1,0l9.4-29.6H60.6z"/>
	<path class="st2" d="M60.6,0.1l-9.4,29.6c0.3,0,0.7,0,1,0l9.4-29.6H60.6z"/>
	<path class="st1" d="M53.7,30.1c0-0.1-0.1-0.2-0.2-0.3v0C53.7,29.9,53.7,30,53.7,30.1"/>
	<path class="st2" d="M53.7,30.1c0-0.1-0.1-0.2-0.2-0.3v0C53.7,29.9,53.7,30,53.7,30.1z"/>
	<path class="st1" d="M53.5,31.1c0-0.1,0-0.1,0-0.2C53.5,31,53.5,31.1,53.5,31.1"/>
	<path class="st2" d="M53.5,31.1c0-0.1,0-0.1,0-0.2C53.5,31,53.5,31.1,53.5,31.1z"/>
	<path class="st1" d="M53.7,30.1c0,0.2,0,0.5-0.2,0.9C53.7,30.5,53.8,30.3,53.7,30.1"/>
	<path class="st2" d="M53.7,30.1c0,0.2,0,0.5-0.2,0.9C53.7,30.5,53.8,30.3,53.7,30.1z"/>
	<path class="st1" d="M64,0.1L64,0.1h-1C63.3,0.1,63.7,0.1,64,0.1"/>
	<path class="st2" d="M64,0.1L64,0.1h-1C63.3,0.1,63.7,0.1,64,0.1z"/>
	<path class="st1" d="M53.6,31.7c0-0.2-0.1-0.4-0.1-0.6C53.5,31.3,53.6,31.5,53.6,31.7"/>
	<path class="st2" d="M53.6,31.7c0-0.2-0.1-0.4-0.1-0.6C53.5,31.3,53.6,31.5,53.6,31.7z"/>
	<path class="st1" d="M63,0.1l-9.4,29.8c0.1,0.1,0.2,0.1,0.2,0.3c0,0.2,0,0.5-0.2,0.9c0,0.1,0,0.1,0,0.2c0,0.2,0.1,0.4,0.1,0.6
		c0.1,0,0.2,0,0.3,0L64,0.1C63.7,0.1,63.3,0.1,63,0.1"/>
	<path class="st2" d="M63,0.1l-9.4,29.8c0.1,0.1,0.2,0.1,0.2,0.3c0,0.2,0,0.5-0.2,0.9c0,0.1,0,0.1,0,0.2c0,0.2,0.1,0.4,0.1,0.6
		c0.1,0,0.2,0,0.3,0L64,0.1C63.7,0.1,63.3,0.1,63,0.1z"/>
	<path class="st1" d="M55.6,30.8L55.6,30.8C55.6,30.8,55.6,30.7,55.6,30.8C55.6,30.7,55.6,30.8,55.6,30.8"/>
	<path class="st2" d="M55.6,30.8L55.6,30.8C55.6,30.8,55.6,30.7,55.6,30.8C55.6,30.7,55.6,30.8,55.6,30.8z"/>
	<path class="st1" d="M55.7,30.7c0.2,0.3,0.5,0.6,0.7,1C56.1,31.3,55.9,31,55.7,30.7"/>
	<path class="st2" d="M55.7,30.7c0.2,0.3,0.5,0.6,0.7,1C56.1,31.3,55.9,31,55.7,30.7z"/>
</g>
<path class="st3" d="M65.3,0.1h1H65.3z"/>
<path class="st4" d="M66.4,0.1h-1H66.4z"/>
<g class="st0">
	<path class="st1" d="M65.3,0.1l-9.8,30.7c0,0,0.1,0,0.1-0.1c0.2,0.3,0.5,0.6,0.7,1l10-31.6H65.3z"/>
	<path class="st2" d="M65.3,0.1l-9.8,30.7c0,0,0.1,0,0.1-0.1c0.2,0.3,0.5,0.6,0.7,1l10-31.6H65.3z"/>
	<path class="st1" d="M68.7,0.1L68.7,0.1c-0.4,0-0.7,0-1,0H68.7z"/>
	<path class="st2" d="M68.7,0.1L68.7,0.1c-0.4,0-0.7,0-1,0H68.7z"/>
	<path class="st1" d="M57.8,33.8c-0.2-0.3-0.4-0.6-0.6-0.9C57.4,33.2,57.6,33.5,57.8,33.8c0,0.1,0.1,0.1,0.1,0.2
		C57.9,34,57.9,33.9,57.8,33.8"/>
	<path class="st2" d="M57.8,33.8c-0.2-0.3-0.4-0.6-0.6-0.9C57.4,33.2,57.6,33.5,57.8,33.8c0,0.1,0.1,0.1,0.1,0.2
		C57.9,34,57.9,33.9,57.8,33.8z"/>
	<path class="st1" d="M57.2,32.9c0.2,0.3,0.4,0.6,0.6,0.9c0,0.1,0.1,0.1,0.1,0.2l10.8-34h-1L57.2,32.9z"/>
	<path class="st2" d="M57.2,32.9c0.2,0.3,0.4,0.6,0.6,0.9c0,0.1,0.1,0.1,0.1,0.2l10.8-34h-1L57.2,32.9z"/>
	<path class="st1" d="M58.4,36.6L58.4,36.6c0.1,0,0.1,0,0.2,0C58.5,36.6,58.4,36.6,58.4,36.6"/>
	<path class="st2" d="M58.4,36.6L58.4,36.6c0.1,0,0.1,0,0.2,0C58.5,36.6,58.4,36.6,58.4,36.6z"/>
	<path class="st1" d="M71,0.1L71,0.1h-1C70.4,0.1,70.7,0.1,71,0.1"/>
	<path class="st2" d="M71,0.1L71,0.1h-1C70.4,0.1,70.7,0.1,71,0.1z"/>
	<path class="st1" d="M70,0.1L58.4,36.6c0.1,0,0.1,0,0.2,0c0.3,0,0.6,0,0.9,0L71,0.1C70.7,0.1,70.4,0.1,70,0.1"/>
	<path class="st2" d="M70,0.1L58.4,36.6c0.1,0,0.1,0,0.2,0c0.3,0,0.6,0,0.9,0L71,0.1C70.7,0.1,70.4,0.1,70,0.1z"/>
	<path class="st1" d="M60.7,36.7L60.7,36.7c0.3,0,0.7,0,1,0C61.4,36.7,61.1,36.7,60.7,36.7"/>
	<path class="st2" d="M60.7,36.7L60.7,36.7c0.3,0,0.7,0,1,0C61.4,36.7,61.1,36.7,60.7,36.7z"/>
</g>
<rect x="72.9" y="-0.5" transform="matrix(0.7084 -0.7058 0.7058 0.7084 21.2059 51.4415)" class="st3" width="0" height="1"/>
<polygon class="st4" points="73.4,0.1 73.4,0.1 72.3,0.1 72.3,0.1 "/>
<g class="st0">
	<path class="st1" d="M72.3,0.1L60.7,36.7c0.3,0,0.7,0,1,0L73.4,0.1H72.3z"/>
	<path class="st2" d="M72.3,0.1L60.7,36.7c0.3,0,0.7,0,1,0L73.4,0.1H72.3z"/>
	<path class="st1" d="M63.1,36.7L63.1,36.7c0.3,0,0.7,0,1,0C63.7,36.7,63.4,36.7,63.1,36.7"/>
	<path class="st2" d="M63.1,36.7L63.1,36.7c0.3,0,0.7,0,1,0C63.7,36.7,63.4,36.7,63.1,36.7z"/>
	<path class="st1" d="M75.7,0.1L75.7,0.1c-0.4,0-0.7,0-1.1,0v0C75,0.1,75.4,0.1,75.7,0.1"/>
	<path class="st2" d="M75.7,0.1L75.7,0.1c-0.4,0-0.7,0-1.1,0v0C75,0.1,75.4,0.1,75.7,0.1z"/>
	<path class="st1" d="M74.7,0.1L63.1,36.7c0.3,0,0.7,0,1,0L75.7,0.1C75.4,0.1,75,0.1,74.7,0.1"/>
	<path class="st2" d="M74.7,0.1L63.1,36.7c0.3,0,0.7,0,1,0L75.7,0.1C75.4,0.1,75,0.1,74.7,0.1z"/>
	<path class="st1" d="M65.4,36.7L65.4,36.7c0.3,0,0.7,0,1,0C66.1,36.7,65.7,36.7,65.4,36.7"/>
	<path class="st2" d="M65.4,36.7L65.4,36.7c0.3,0,0.7,0,1,0C66.1,36.7,65.7,36.7,65.4,36.7z"/>
</g>
<path class="st3" d="M77,0.1h1H77z"/>
<path class="st4" d="M78.1,0.1H77H78.1z"/>
<g class="st0">
	<path class="st1" d="M77,0.1L65.4,36.7c0.3,0,0.7,0,1,0L78.1,0.1H77z"/>
	<path class="st2" d="M77,0.1L65.4,36.7c0.3,0,0.7,0,1,0L78.1,0.1H77z"/>
	<path class="st1" d="M67.7,36.8L67.7,36.8c0.3,0,0.7,0,1,0v0C68.4,36.8,68.1,36.8,67.7,36.8"/>
	<path class="st2" d="M67.7,36.8L67.7,36.8c0.3,0,0.7,0,1,0v0C68.4,36.8,68.1,36.8,67.7,36.8z"/>
</g>
<polygon class="st3" points="80.4,0.1 79.4,0.1 80.4,0.1 "/>
<polygon class="st4" points="80.4,0.1 80.4,0.1 79.4,0.1 "/>
<g class="st0">
	<path class="st1" d="M79.4,0.1L67.7,36.8c0.3,0,0.7,0,1,0L80.4,0.1H79.4z"/>
	<path class="st2" d="M79.4,0.1L67.7,36.8c0.3,0,0.7,0,1,0L80.4,0.1H79.4z"/>
	<path class="st1" d="M70,36.8L70,36.8c0.3,0,0.7,0,1,0C70.7,36.8,70.4,36.8,70,36.8"/>
	<path class="st2" d="M70,36.8L70,36.8c0.3,0,0.7,0,1,0C70.7,36.8,70.4,36.8,70,36.8z"/>
	<path class="st1" d="M82.7,0.1L82.7,0.1h-1C82.1,0.1,82.4,0.1,82.7,0.1"/>
	<path class="st2" d="M82.7,0.1L82.7,0.1h-1C82.1,0.1,82.4,0.1,82.7,0.1z"/>
	<path class="st1" d="M81.7,0.1L70,36.8c0.3,0,0.7,0,1,0L82.7,0.1C82.4,0.1,82.1,0.1,81.7,0.1"/>
	<path class="st2" d="M81.7,0.1L70,36.8c0.3,0,0.7,0,1,0L82.7,0.1C82.4,0.1,82.1,0.1,81.7,0.1z"/>
	<path class="st1" d="M72.4,36.8L72.4,36.8c0.3,0,0.7,0,1,0v0C73.1,36.8,72.7,36.8,72.4,36.8"/>
	<path class="st2" d="M72.4,36.8L72.4,36.8c0.3,0,0.7,0,1,0v0C73.1,36.8,72.7,36.8,72.4,36.8z"/>
</g>
<rect x="84" y="0.1" class="st3" width="1" height="0"/>
<path class="st4" d="M85.1,0.1h-1H85.1z"/>
<g class="st0">
	<path class="st1" d="M84,0.1L72.4,36.8c0.3,0,0.7,0,1,0L85.1,0.1H84z"/>
	<path class="st2" d="M84,0.1L72.4,36.8c0.3,0,0.7,0,1,0L85.1,0.1H84z"/>
	<path class="st1" d="M87.4,0.1L87.4,0.1l-1,0v0C86.7,0.1,87.1,0.1,87.4,0.1"/>
	<path class="st2" d="M87.4,0.1L87.4,0.1l-1,0v0C86.7,0.1,87.1,0.1,87.4,0.1z"/>
	<path class="st1" d="M75.5,36.9c-0.3,0-0.6,0-0.8,0l0,0C75,36.9,75.3,36.9,75.5,36.9c0.1,0,0.1,0,0.2,0v0
		C75.7,36.9,75.6,36.9,75.5,36.9"/>
	<path class="st2" d="M75.5,36.9c-0.3,0-0.6,0-0.8,0l0,0C75,36.9,75.3,36.9,75.5,36.9c0.1,0,0.1,0,0.2,0v0
		C75.7,36.9,75.6,36.9,75.5,36.9z"/>
	<path class="st1" d="M74.7,36.9c0.3,0,0.6,0,0.8,0c0.1,0,0.1,0,0.2,0L87.4,0.1c-0.3,0-0.7,0-1,0L74.7,36.9z"/>
	<path class="st2" d="M74.7,36.9c0.3,0,0.6,0,0.8,0c0.1,0,0.1,0,0.2,0L87.4,0.1c-0.3,0-0.7,0-1,0L74.7,36.9z"/>
	<path class="st1" d="M89.8,0.1L89.8,0.1c-0.4,0-0.7,0-1,0v0H89.8z"/>
	<path class="st2" d="M89.8,0.1L89.8,0.1c-0.4,0-0.7,0-1,0v0H89.8z"/>
	<path class="st1" d="M76.8,37.5L76.8,37.5c0.3,0.3,0.5,0.5,0.8,0.8C77.4,38,77.1,37.7,76.8,37.5"/>
	<path class="st2" d="M76.8,37.5L76.8,37.5c0.3,0.3,0.5,0.5,0.8,0.8C77.4,38,77.1,37.7,76.8,37.5z"/>
	<path class="st1" d="M88.7,0.1L76.8,37.5c0.3,0.3,0.5,0.5,0.8,0.8L89.8,0.1H88.7z"/>
	<path class="st2" d="M88.7,0.1L76.8,37.5c0.3,0.3,0.5,0.5,0.8,0.8L89.8,0.1H88.7z"/>
</g>
<path class="st3" d="M91.1,0.1h1H91.1z"/>
<path class="st4" d="M92.1,0.1h-1H92.1z"/>
<g class="st0">
	<path class="st1" d="M78.6,39.3L78.6,39.3c0.2,0.2,0.3,0.3,0.5,0.5C78.9,39.7,78.8,39.5,78.6,39.3"/>
	<path class="st2" d="M78.6,39.3L78.6,39.3c0.2,0.2,0.3,0.3,0.5,0.5C78.9,39.7,78.8,39.5,78.6,39.3z"/>
	<path class="st1" d="M91.1,0.1L78.6,39.3c0.2,0.2,0.3,0.3,0.5,0.5c0.1,0.1,0.2,0.2,0.3,0.3L92.1,0.1H91.1z"/>
	<path class="st2" d="M91.1,0.1L78.6,39.3c0.2,0.2,0.3,0.3,0.5,0.5c0.1,0.1,0.2,0.2,0.3,0.3L92.1,0.1H91.1z"/>
</g>
<rect x="93.4" y="0.1" class="st3" width="1" height="0"/>
<rect x="93.4" y="0.1" class="st4" width="1" height="0"/>
<g class="st0">
	<path class="st1" d="M93.4,0.1L80.3,41.2c0.3,0.3,0.5,0.6,0.8,0.8l13.3-42H93.4z"/>
	<path class="st2" d="M93.4,0.1L80.3,41.2c0.3,0.3,0.5,0.6,0.8,0.8l13.3-42H93.4z"/>
</g>
<rect x="95.7" y="0.1" class="st3" width="1" height="0"/>
<path class="st4" d="M96.8,0.1h-1H96.8z"/>
<g class="st0">
	<path class="st1" d="M95.7,0.1l-13.7,43c0.3,0.3,0.5,0.6,0.8,0.8L96.8,0.1H95.7z"/>
	<path class="st2" d="M95.7,0.1l-13.7,43c0.3,0.3,0.5,0.6,0.8,0.8L96.8,0.1H95.7z"/>
	<path class="st1" d="M99.1,0.1L99.1,0.1l-1,0v0C98.4,0.1,98.8,0.1,99.1,0.1"/>
	<path class="st2" d="M99.1,0.1L99.1,0.1l-1,0v0C98.4,0.1,98.8,0.1,99.1,0.1z"/>
	<path class="st1" d="M98.1,0.1L83.8,45c0.3,0.3,0.5,0.6,0.8,0.8L99.1,0.1C98.8,0.1,98.4,0.1,98.1,0.1"/>
	<path class="st2" d="M98.1,0.1L83.8,45c0.3,0.3,0.5,0.6,0.8,0.8L99.1,0.1C98.8,0.1,98.4,0.1,98.1,0.1z"/>
</g>
<rect x="100.4" y="0.1" class="st3" width="1" height="0"/>
<rect x="100.4" y="0.1" class="st4" width="1" height="0"/>
<g class="st0">
	<path class="st1" d="M100.4,0.1L85.6,46.8c0.3,0.3,0.5,0.6,0.8,0.8l15.1-47.6H100.4z"/>
	<path class="st2" d="M100.4,0.1L85.6,46.8c0.3,0.3,0.5,0.6,0.8,0.8l15.1-47.6H100.4z"/>
	<path class="st1" d="M103.8,0.1L103.8,0.1c-0.4,0-0.7,0-1,0l0,0H103.8z"/>
	<path class="st2" d="M103.8,0.1L103.8,0.1c-0.4,0-0.7,0-1,0l0,0H103.8z"/>
	<path class="st1" d="M102.8,0.1L87.3,48.7c0.3,0.3,0.5,0.6,0.8,0.8l15.7-49.5H102.8z"/>
	<path class="st2" d="M102.8,0.1L87.3,48.7c0.3,0.3,0.5,0.6,0.8,0.8l15.7-49.5H102.8z"/>
</g>
<rect x="105.6" y="-0.5" transform="matrix(0.7084 -0.7058 0.7058 0.7084 30.7549 74.5621)" class="st3" width="0" height="1"/>
<rect x="105.1" y="0.1" class="st4" width="1" height="0"/>
<g class="st0">
	<path class="st1" d="M105.1,0.1L89,50.6c0.3,0.3,0.5,0.6,0.8,0.8l16.3-51.4H105.1z"/>
	<path class="st2" d="M105.1,0.1L89,50.6c0.3,0.3,0.5,0.6,0.8,0.8l16.3-51.4H105.1z"/>
</g>
<rect x="108" y="-0.5" transform="matrix(0.7084 -0.7058 0.7058 0.7084 31.4372 76.214)" class="st3" width="0" height="1"/>
<rect x="107.4" y="0.1" class="st4" width="1" height="0"/>
<g class="st0">
	<path class="st1" d="M90.8,52.5L90.8,52.5c0.3,0.3,0.5,0.6,0.8,0.8C91.3,53.1,91,52.8,90.8,52.5"/>
	<path class="st2" d="M90.8,52.5L90.8,52.5c0.3,0.3,0.5,0.6,0.8,0.8C91.3,53.1,91,52.8,90.8,52.5z"/>
	<path class="st1" d="M107.4,0.1L90.8,52.5c0.3,0.3,0.5,0.6,0.8,0.8l16.9-53.3H107.4z"/>
	<path class="st2" d="M107.4,0.1L90.8,52.5c0.3,0.3,0.5,0.6,0.8,0.8l16.9-53.3H107.4z"/>
	<path class="st1" d="M92.5,54.4L92.5,54.4c0.3,0.3,0.5,0.6,0.8,0.8v0C93.1,55,92.8,54.7,92.5,54.4"/>
	<path class="st2" d="M92.5,54.4L92.5,54.4c0.3,0.3,0.5,0.6,0.8,0.8v0C93.1,55,92.8,54.7,92.5,54.4z"/>
</g>
<rect x="110.3" y="-0.5" transform="matrix(0.8944 -0.4472 0.4472 0.8944 11.6194 49.336)" class="st3" width="0" height="1"/>
<rect x="109.8" y="0.1" class="st4" width="1" height="0"/>
<g class="st0">
	<path class="st1" d="M109.8,0.1L92.5,54.4c0.3,0.3,0.5,0.6,0.8,0.8l17.5-55.2H109.8z"/>
	<path class="st2" d="M109.8,0.1L92.5,54.4c0.3,0.3,0.5,0.6,0.8,0.8l17.5-55.2H109.8z"/>
</g>
<polygon class="st3" points="113,0.1 112.1,0.1 112.1,0.1 113,0.1 113.2,0.1 113.2,0.1 "/>
<polygon class="st4" points="113,0.1 113.2,0.1 113.2,0.1 113,0.1 112.1,0.1 112.1,0.1 "/>
<g class="st0">
	<path class="st1" d="M113,0.1h-0.8L94.3,56.3c0,0,0.1,0.1,0.1,0.1c0.2,0.2,0.5,0.4,0.8,0.3c0,0,0,0,0.1,0l18-56.6H113z"/>
	<path class="st2" d="M113,0.1h-0.8L94.3,56.3c0,0,0.1,0.1,0.1,0.1c0.2,0.2,0.5,0.4,0.8,0.3c0,0,0,0,0.1,0l18-56.6H113z"/>
	<path class="st1" d="M97.1,56.1c-0.2,0-0.3,0.1-0.5,0.1C96.8,56.2,96.9,56.1,97.1,56.1c0.2,0,0.4-0.1,0.7-0.1l0,0
		C97.5,56,97.3,56.1,97.1,56.1"/>
	<path class="st2" d="M97.1,56.1c-0.2,0-0.3,0.1-0.5,0.1C96.8,56.2,96.9,56.1,97.1,56.1c0.2,0,0.4-0.1,0.7-0.1l0,0
		C97.5,56,97.3,56.1,97.1,56.1z"/>
	<path class="st1" d="M115.5,0.1L115.5,0.1c-0.4,0-0.7,0-1,0h0C114.8,0.1,115.2,0.1,115.5,0.1"/>
	<path class="st2" d="M115.5,0.1L115.5,0.1c-0.4,0-0.7,0-1,0h0C114.8,0.1,115.2,0.1,115.5,0.1z"/>
	<path class="st1" d="M114.5,0.1L96.6,56.2c0.2,0,0.3-0.1,0.5-0.1c0.2,0,0.4-0.1,0.7-0.1l17.8-55.9C115.2,0.1,114.8,0.1,114.5,0.1"
		/>
	<path class="st2" d="M114.5,0.1L96.6,56.2c0.2,0,0.3-0.1,0.5-0.1c0.2,0,0.4-0.1,0.7-0.1l17.8-55.9C115.2,0.1,114.8,0.1,114.5,0.1z"
		/>
	<path class="st1" d="M99.1,55.8L99.1,55.8c0,0,0.1,0,0.1,0C99.2,55.8,99.1,55.8,99.1,55.8"/>
	<path class="st2" d="M99.1,55.8L99.1,55.8c0,0,0.1,0,0.1,0C99.2,55.8,99.1,55.8,99.1,55.8z"/>
	<path class="st1" d="M117.8,0.1L117.8,0.1c-0.4,0-0.7,0-1,0C117.2,0.1,117.5,0.1,117.8,0.1"/>
	<path class="st2" d="M117.8,0.1L117.8,0.1c-0.4,0-0.7,0-1,0C117.2,0.1,117.5,0.1,117.8,0.1z"/>
	<path class="st1" d="M99.2,55.8c0.3,0,0.6-0.1,1-0.1C99.9,55.7,99.5,55.8,99.2,55.8"/>
	<path class="st2" d="M99.2,55.8c0.3,0,0.6-0.1,1-0.1C99.9,55.7,99.5,55.8,99.2,55.8z"/>
	<path class="st1" d="M99.1,55.8c0,0,0.1,0,0.1,0c0.3,0,0.6-0.1,1-0.1l17.7-55.6c-0.3,0-0.7,0-1,0L99.1,55.8z"/>
	<path class="st2" d="M99.1,55.8c0,0,0.1,0,0.1,0c0.3,0,0.6-0.1,1-0.1l17.7-55.6c-0.3,0-0.7,0-1,0L99.1,55.8z"/>
	<path class="st1" d="M101.5,55.7L101.5,55.7c0.3,0,0.7,0.1,1,0.1C102.1,55.8,101.8,55.7,101.5,55.7"/>
	<path class="st2" d="M101.5,55.7L101.5,55.7c0.3,0,0.7,0.1,1,0.1C102.1,55.8,101.8,55.7,101.5,55.7z"/>
	<path class="st1" d="M120.2,0.1L120.2,0.1c-0.4,0-0.7,0-1,0v0C119.5,0.1,119.8,0.1,120.2,0.1"/>
	<path class="st2" d="M120.2,0.1L120.2,0.1c-0.4,0-0.7,0-1,0v0C119.5,0.1,119.8,0.1,120.2,0.1z"/>
	<path class="st1" d="M101.5,55.7c0.3,0,0.7,0.1,1,0.1l17.7-55.8c-0.3,0-0.7,0-1,0L101.5,55.7z"/>
	<path class="st2" d="M101.5,55.7c0.3,0,0.7,0.1,1,0.1l17.7-55.8c-0.3,0-0.7,0-1,0L101.5,55.7z"/>
	<path class="st1" d="M106,52.1c-0.2,0.6-0.4,1.2-0.6,1.8L106,52.1z"/>
	<path class="st2" d="M106,52.1c-0.2,0.6-0.4,1.2-0.6,1.8L106,52.1z"/>
	<path class="st1" d="M104.6,56.3c0.1-0.3,0.3-0.6,0.4-0.9C104.8,55.7,104.7,56,104.6,56.3"/>
	<path class="st2" d="M104.6,56.3c0.1-0.3,0.3-0.6,0.4-0.9C104.8,55.7,104.7,56,104.6,56.3z"/>
	<path class="st1" d="M105,52.7c-0.2,0.6-0.5,1.1-0.7,1.7C104.5,53.8,104.7,53.3,105,52.7c0.1,0.3,0.1,0.6,0.1,0.9
		C105.1,53.3,105.1,53,105,52.7"/>
	<path class="st2" d="M105,52.7c-0.2,0.6-0.5,1.1-0.7,1.7C104.5,53.8,104.7,53.3,105,52.7c0.1,0.3,0.1,0.6,0.1,0.9
		C105.1,53.3,105.1,53,105,52.7z"/>
	<path class="st1" d="M105.4,53.9L105.4,53.9c0.2-0.6,0.3-1.2,0.6-1.8C105.8,52.7,105.6,53.3,105.4,53.9"/>
	<path class="st2" d="M105.4,53.9L105.4,53.9c0.2-0.6,0.3-1.2,0.6-1.8C105.8,52.7,105.6,53.3,105.4,53.9z"/>
	<path class="st1" d="M104.2,54.6L104.2,54.6c0-0.1,0.1-0.2,0.1-0.2C104.2,54.5,104.2,54.5,104.2,54.6"/>
	<path class="st2" d="M104.2,54.6L104.2,54.6c0-0.1,0.1-0.2,0.1-0.2C104.2,54.5,104.2,54.5,104.2,54.6z"/>
	<path class="st1" d="M103.8,56.3c0.1-0.1,0.2-0.2,0.2-0.3C104,56,103.9,56.2,103.8,56.3"/>
	<path class="st2" d="M103.8,56.3c0.1-0.1,0.2-0.2,0.2-0.3C104,56,103.9,56.2,103.8,56.3z"/>
	<path class="st1" d="M105.1,53.6c0,0.4-0.2,0.8-0.4,1.2C104.9,54.4,105,54.1,105.1,53.6"/>
	<path class="st2" d="M105.1,53.6c0,0.4-0.2,0.8-0.4,1.2C104.9,54.4,105,54.1,105.1,53.6z"/>
	<path class="st1" d="M122.5,0.1L122.5,0.1c-0.4,0-0.7,0-1,0C121.8,0.1,122.2,0.1,122.5,0.1"/>
	<path class="st2" d="M122.5,0.1L122.5,0.1c-0.4,0-0.7,0-1,0C121.8,0.1,122.2,0.1,122.5,0.1z"/>
	<path class="st1" d="M104.2,54.6c0-0.1,0.1-0.2,0.1-0.2c0.2-0.6,0.5-1.1,0.7-1.7c0.1,0.3,0.1,0.6,0.1,0.9c0,0.4-0.2,0.8-0.4,1.2
		c-0.2,0.4-0.4,0.7-0.6,1.1c-0.1,0.1-0.1,0.2-0.2,0.3c-0.1,0.1-0.1,0.2-0.1,0.3c0.1,0.2,0.4,0.3,0.5,0.4c0.1-0.2,0.2-0.5,0.3-0.7
		c0.1-0.3,0.3-0.6,0.4-0.9l0.5-1.5c0.2-0.6,0.3-1.2,0.6-1.8l16.5-52.1c-0.3,0-0.7,0-1,0L104.2,54.6z"/>
	<path class="st2" d="M104.2,54.6c0-0.1,0.1-0.2,0.1-0.2c0.2-0.6,0.5-1.1,0.7-1.7c0.1,0.3,0.1,0.6,0.1,0.9c0,0.4-0.2,0.8-0.4,1.2
		c-0.2,0.4-0.4,0.7-0.6,1.1c-0.1,0.1-0.1,0.2-0.2,0.3c-0.1,0.1-0.1,0.2-0.1,0.3c0.1,0.2,0.4,0.3,0.5,0.4c0.1-0.2,0.2-0.5,0.3-0.7
		c0.1-0.3,0.3-0.6,0.4-0.9l0.5-1.5c0.2-0.6,0.3-1.2,0.6-1.8l16.5-52.1c-0.3,0-0.7,0-1,0L104.2,54.6z"/>
	<path class="st1" d="M108.8,47.3L108.8,47.3c0.1-0.1,0.2-0.2,0.3-0.3C109,47.1,108.9,47.2,108.8,47.3"/>
	<path class="st2" d="M108.8,47.3L108.8,47.3c0.1-0.1,0.2-0.2,0.3-0.3C109,47.1,108.9,47.2,108.8,47.3z"/>
	<path class="st1" d="M109.1,47c0.4-0.4,0.8-0.8,1.2-1.2C109.9,46.2,109.5,46.6,109.1,47"/>
	<path class="st2" d="M109.1,47c0.4-0.4,0.8-0.8,1.2-1.2C109.9,46.2,109.5,46.6,109.1,47z"/>
	<path class="st1" d="M124.9,0.1L124.9,0.1c-0.4,0-0.7,0-1.1,0C124.2,0.1,124.5,0.1,124.9,0.1"/>
	<path class="st2" d="M124.9,0.1L124.9,0.1c-0.4,0-0.7,0-1.1,0C124.2,0.1,124.5,0.1,124.9,0.1z"/>
	<path class="st1" d="M108.8,47.3c0.1-0.1,0.2-0.2,0.3-0.3c0.4-0.4,0.8-0.8,1.2-1.2l14.5-45.8c-0.3,0-0.7,0-1,0L108.8,47.3z"/>
	<path class="st2" d="M108.8,47.3c0.1-0.1,0.2-0.2,0.3-0.3c0.4-0.4,0.8-0.8,1.2-1.2l14.5-45.8c-0.3,0-0.7,0-1,0L108.8,47.3z"/>
	<path class="st1" d="M112.1,44.4L112.1,44.4c0.4-0.3,0.9-0.6,1.3-0.9v0C113,43.8,112.5,44.1,112.1,44.4"/>
	<path class="st2" d="M112.1,44.4L112.1,44.4c0.4-0.3,0.9-0.6,1.3-0.9v0C113,43.8,112.5,44.1,112.1,44.4z"/>
	<path class="st1" d="M127.2,0.1L127.2,0.1c-0.4,0-0.7,0-1,0h0H127.2z"/>
	<path class="st2" d="M127.2,0.1L127.2,0.1c-0.4,0-0.7,0-1,0h0H127.2z"/>
	<path class="st1" d="M126.2,0.1l-14.1,44.4c0.4-0.3,0.9-0.6,1.3-0.9l13.8-43.4H126.2z"/>
	<path class="st2" d="M126.2,0.1l-14.1,44.4c0.4-0.3,0.9-0.6,1.3-0.9l13.8-43.4H126.2z"/>
	<path class="st1" d="M121.8,23.4L121.8,23.4c0-0.1,0.1-0.2,0.1-0.3C121.9,23.2,121.8,23.3,121.8,23.4"/>
	<path class="st2" d="M121.8,23.4L121.8,23.4c0-0.1,0.1-0.2,0.1-0.3C121.9,23.2,121.8,23.3,121.8,23.4z"/>
	<path class="st1" d="M126.2,10.8L126.2,10.8c-0.6,0.2-0.6,0.8-0.8,1.4C125.5,11.6,125.6,10.9,126.2,10.8"/>
	<path class="st2" d="M126.2,10.8L126.2,10.8c-0.6,0.2-0.6,0.8-0.8,1.4C125.5,11.6,125.6,10.9,126.2,10.8z"/>
	<path class="st1" d="M115.1,42.4L115.1,42.4c0,0,0.1-0.1,0.1-0.1C115.2,42.3,115.1,42.3,115.1,42.4"/>
	<path class="st2" d="M115.1,42.4L115.1,42.4c0,0,0.1-0.1,0.1-0.1C115.2,42.3,115.1,42.3,115.1,42.4z"/>
	<path class="st1" d="M125.1,12.6L125.1,12.6c0.2,0.1,0.3,0.1,0.5,0.2C125.4,12.7,125.2,12.6,125.1,12.6"/>
	<path class="st2" d="M125.1,12.6L125.1,12.6c0.2,0.1,0.3,0.1,0.5,0.2C125.4,12.7,125.2,12.6,125.1,12.6z"/>
	<path class="st1" d="M125.1,12.6L125.1,12.6c0.1-0.1,0.2-0.3,0.3-0.5C125.2,12.3,125.2,12.5,125.1,12.6"/>
	<path class="st2" d="M125.1,12.6L125.1,12.6c0.1-0.1,0.2-0.3,0.3-0.5C125.2,12.3,125.2,12.5,125.1,12.6z"/>
	<path class="st1" d="M121.8,23.4L121.8,23.4c0.1,0,0.2,0.1,0.3,0.1l0,0C122,23.5,121.9,23.5,121.8,23.4"/>
	<path class="st2" d="M121.8,23.4L121.8,23.4c0.1,0,0.2,0.1,0.3,0.1l0,0C122,23.5,121.9,23.5,121.8,23.4z"/>
	<path class="st1" d="M129.5,0.1L129.5,0.1h-1C128.9,0.1,129.2,0.1,129.5,0.1"/>
	<path class="st2" d="M129.5,0.1L129.5,0.1h-1C128.9,0.1,129.2,0.1,129.5,0.1z"/>
	<path class="st1" d="M122.2,23.2c-0.1,0-0.2-0.1-0.3-0.1C122,23.2,122.1,23.2,122.2,23.2"/>
	<path class="st2" d="M122.2,23.2c-0.1,0-0.2-0.1-0.3-0.1C122,23.2,122.1,23.2,122.2,23.2z"/>
	<path class="st1" d="M115.2,42.3c0.4-0.3,0.8-0.5,1.2-0.8v0C116,41.7,115.6,42,115.2,42.3"/>
	<path class="st2" d="M115.2,42.3c0.4-0.3,0.8-0.5,1.2-0.8v0C116,41.7,115.6,42,115.2,42.3z"/>
	<path class="st1" d="M121.8,23.4L121.8,23.4c0-0.1,0.1-0.2,0.1-0.3c0.1,0,0.2,0.1,0.3,0.1l3.3-10.5c-0.1-0.1-0.3-0.1-0.5-0.2v0
		c0.1-0.1,0.2-0.3,0.3-0.5c0.2-0.6,0.3-1.2,0.8-1.4l3.4-10.7c-0.4,0-0.7,0-1,0l-13.4,42.3c0,0,0.1-0.1,0.1-0.1
		c0.4-0.3,0.8-0.5,1.2-0.8l5.7-17.9C122,23.5,121.9,23.5,121.8,23.4L121.8,23.4z"/>
	<path class="st2" d="M121.8,23.4L121.8,23.4c0-0.1,0.1-0.2,0.1-0.3c0.1,0,0.2,0.1,0.3,0.1l3.3-10.5c-0.1-0.1-0.3-0.1-0.5-0.2v0
		c0.1-0.1,0.2-0.3,0.3-0.5c0.2-0.6,0.3-1.2,0.8-1.4l3.4-10.7c-0.4,0-0.7,0-1,0l-13.4,42.3c0,0,0.1-0.1,0.1-0.1
		c0.4-0.3,0.8-0.5,1.2-0.8l5.7-17.9C122,23.5,121.9,23.5,121.8,23.4L121.8,23.4z"/>
	<path class="st1" d="M118.6,40.3c0.2-0.1,0.4-0.1,0.5-0.1C119,40.2,118.8,40.2,118.6,40.3"/>
	<path class="st2" d="M118.6,40.3c0.2-0.1,0.4-0.1,0.5-0.1C119,40.2,118.8,40.2,118.6,40.3z"/>
	<path class="st1" d="M118,40.5L118,40.5c0.2-0.1,0.4-0.2,0.6-0.3C118.4,40.3,118.2,40.4,118,40.5"/>
	<path class="st2" d="M118,40.5L118,40.5c0.2-0.1,0.4-0.2,0.6-0.3C118.4,40.3,118.2,40.4,118,40.5z"/>
	<path class="st1" d="M126.8,12.7L126.8,12.7c0.3-0.1,0.6-0.1,0.8-0.2C127.4,12.6,127.1,12.7,126.8,12.7"/>
	<path class="st2" d="M126.8,12.7L126.8,12.7c0.3-0.1,0.6-0.1,0.8-0.2C127.4,12.6,127.1,12.7,126.8,12.7z"/>
	<path class="st1" d="M123.4,23.6L123.4,23.6c0.3,0.1,0.6,0.2,1,0.3C124,23.8,123.7,23.7,123.4,23.6"/>
	<path class="st2" d="M123.4,23.6L123.4,23.6c0.3,0.1,0.6,0.2,1,0.3C124,23.8,123.7,23.7,123.4,23.6z"/>
	<path class="st1" d="M127.9,12.5c-0.1,0-0.2,0-0.3,0.1C127.7,12.5,127.8,12.5,127.9,12.5L127.9,12.5z"/>
	<path class="st2" d="M127.9,12.5c-0.1,0-0.2,0-0.3,0.1C127.7,12.5,127.8,12.5,127.9,12.5L127.9,12.5z"/>
	<path class="st1" d="M131.9,0.1L131.9,0.1c-0.4,0-0.7,0-1,0H131.9z"/>
	<path class="st2" d="M131.9,0.1L131.9,0.1c-0.4,0-0.7,0-1,0H131.9z"/>
	<path class="st1" d="M120.8,32.6c0.2,0.2,0.3,0.5,0.5,0.7C121.1,33.1,121,32.8,120.8,32.6"/>
	<path class="st2" d="M120.8,32.6c0.2,0.2,0.3,0.5,0.5,0.7C121.1,33.1,121,32.8,120.8,32.6z"/>
	<path class="st1" d="M121.1,32.2c0.2,0.1,0.4,0.2,0.5,0.2C121.4,32.4,121.2,32.3,121.1,32.2c0,0-0.3,0.3-0.3,0.4
		C120.8,32.5,121,32.2,121.1,32.2"/>
	<path class="st2" d="M121.1,32.2c0.2,0.1,0.4,0.2,0.5,0.2C121.4,32.4,121.2,32.3,121.1,32.2c0,0-0.3,0.3-0.3,0.4
		C120.8,32.5,121,32.2,121.1,32.2z"/>
	<path class="st1" d="M124.1,24.6c-0.3-0.2-0.6-0.3-0.9-0.5C123.5,24.3,123.8,24.5,124.1,24.6"/>
	<path class="st2" d="M124.1,24.6c-0.3-0.2-0.6-0.3-0.9-0.5C123.5,24.3,123.8,24.5,124.1,24.6z"/>
	<path class="st1" d="M128.3,11.3c0,0-0.1,0-0.1,0.1C128.2,11.3,128.3,11.3,128.3,11.3"/>
	<path class="st2" d="M128.3,11.3c0,0-0.1,0-0.1,0.1C128.2,11.3,128.3,11.3,128.3,11.3z"/>
	<path class="st1" d="M128.2,11.3c-0.4,0.1-0.7,0.1-0.9,0C127.5,11.5,127.8,11.4,128.2,11.3"/>
	<path class="st2" d="M128.2,11.3c-0.4,0.1-0.7,0.1-0.9,0C127.5,11.5,127.8,11.4,128.2,11.3z"/>
	<path class="st1" d="M120.8,32.6c0,0,0.2-0.4,0.3-0.4c0.2,0.1,0.4,0.2,0.5,0.2l2.5-7.8c-0.3-0.2-0.6-0.3-0.9-0.5L118,40.5
		c0.2-0.1,0.4-0.2,0.6-0.3c0.2-0.1,0.4-0.1,0.5-0.1l2.2-6.9C121.1,33.1,121,32.8,120.8,32.6"/>
	<path class="st2" d="M120.8,32.6c0,0,0.2-0.4,0.3-0.4c0.2,0.1,0.4,0.2,0.5,0.2l2.5-7.8c-0.3-0.2-0.6-0.3-0.9-0.5L118,40.5
		c0.2-0.1,0.4-0.2,0.6-0.3c0.2-0.1,0.4-0.1,0.5-0.1l2.2-6.9C121.1,33.1,121,32.8,120.8,32.6z"/>
	<path class="st1" d="M128.2,11.3c0,0,0.1,0,0.1-0.1l3.6-11.2h-1l-3.6,11.3C127.5,11.4,127.8,11.4,128.2,11.3"/>
	<path class="st2" d="M128.2,11.3c0,0,0.1,0,0.1-0.1l3.6-11.2h-1l-3.6,11.3C127.5,11.4,127.8,11.4,128.2,11.3z"/>
	<path class="st1" d="M127.9,12.5c-0.1,0-0.2,0-0.3,0.1c-0.3,0.1-0.5,0.1-0.8,0.2l-3.4,10.8c0.3,0.1,0.6,0.2,1,0.3L127.9,12.5z"/>
	<path class="st2" d="M127.9,12.5c-0.1,0-0.2,0-0.3,0.1c-0.3,0.1-0.5,0.1-0.8,0.2l-3.4,10.8c0.3,0.1,0.6,0.2,1,0.3L127.9,12.5z"/>
	<path class="st1" d="M126.1,25.5c-0.3-0.1-0.6-0.2-0.9-0.4C125.5,25.3,125.8,25.4,126.1,25.5z"/>
	<path class="st2" d="M126.1,25.5c-0.3-0.1-0.6-0.2-0.9-0.4C125.5,25.3,125.8,25.4,126.1,25.5z"/>
	<path class="st1" d="M131.2,9.7L131.2,9.7c-0.2,0-0.3,0.1-0.5,0.1c-0.2,0.1-0.4,0.2-0.6,0.3c0.2-0.1,0.4-0.2,0.6-0.3
		C130.8,9.8,131,9.7,131.2,9.7"/>
	<path class="st2" d="M131.2,9.7L131.2,9.7c-0.2,0-0.3,0.1-0.5,0.1c-0.2,0.1-0.4,0.2-0.6,0.3c0.2-0.1,0.4-0.2,0.6-0.3
		C130.8,9.8,131,9.7,131.2,9.7z"/>
	<path class="st1" d="M120.6,39.8L120.6,39.8c0.4-0.1,0.7-0.2,1.1-0.2C121.3,39.6,121,39.7,120.6,39.8"/>
	<path class="st2" d="M120.6,39.8L120.6,39.8c0.4-0.1,0.7-0.2,1.1-0.2C121.3,39.6,121,39.7,120.6,39.8z"/>
	<path class="st1" d="M130.1,10.2c-0.1,0-0.1,0.1-0.2,0.1h0C130,10.2,130,10.2,130.1,10.2"/>
	<path class="st2" d="M130.1,10.2c-0.1,0-0.1,0.1-0.2,0.1h0C130,10.2,130,10.2,130.1,10.2z"/>
	<path class="st1" d="M130.4,12.2c-0.1,0-0.3,0-0.4,0C130.1,12.1,130.2,12.2,130.4,12.2L130.4,12.2z"/>
	<path class="st2" d="M130.4,12.2c-0.1,0-0.3,0-0.4,0C130.1,12.1,130.2,12.2,130.4,12.2L130.4,12.2z"/>
	<path class="st1" d="M126.8,22.2c0.1,0.3,0.1,0.6,0.2,0.9C126.9,22.8,126.8,22.5,126.8,22.2"/>
	<path class="st2" d="M126.8,22.2c0.1,0.3,0.1,0.6,0.2,0.9C126.9,22.8,126.8,22.5,126.8,22.2z"/>
	<path class="st1" d="M127.1,22.4c0-0.1-0.1-0.2-0.1-0.3C127.1,22.2,127.1,22.3,127.1,22.4"/>
	<path class="st2" d="M127.1,22.4c0-0.1-0.1-0.2-0.1-0.3C127.1,22.2,127.1,22.3,127.1,22.4z"/>
	<path class="st1" d="M122.7,33.2L122.7,33.2c0.3,0.2,0.6,0.3,1,0.3C123.3,33.5,123,33.4,122.7,33.2"/>
	<path class="st2" d="M122.7,33.2L122.7,33.2c0.3,0.2,0.6,0.3,1,0.3C123.3,33.5,123,33.4,122.7,33.2z"/>
	<path class="st1" d="M134.2,0.1L134.2,0.1c-0.4,0-0.7,0-1.1,0C133.5,0.1,133.9,0.1,134.2,0.1"/>
	<path class="st2" d="M134.2,0.1L134.2,0.1c-0.4,0-0.7,0-1.1,0C133.5,0.1,133.9,0.1,134.2,0.1z"/>
	<path class="st1" d="M130,12.1c-0.2,0-0.4,0-0.6,0v0C129.5,12.1,129.8,12.1,130,12.1"/>
	<path class="st2" d="M130,12.1c-0.2,0-0.4,0-0.6,0v0C129.5,12.1,129.8,12.1,130,12.1z"/>
	<path class="st1" d="M123.4,34.1c-0.3-0.1-0.6-0.2-0.9-0.3C122.8,33.9,123.1,34,123.4,34.1"/>
	<path class="st2" d="M123.4,34.1c-0.3-0.1-0.6-0.2-0.9-0.3C122.8,33.9,123.1,34,123.4,34.1z"/>
	<path class="st1" d="M126.5,24.5c-0.3-0.1-0.6-0.2-1-0.3C125.8,24.3,126.2,24.4,126.5,24.5z"/>
	<path class="st2" d="M126.5,24.5c-0.3-0.1-0.6-0.2-1-0.3C125.8,24.3,126.2,24.4,126.5,24.5z"/>
	<path class="st1" d="M123.4,34.1c-0.3-0.1-0.6-0.2-0.9-0.3l-1.7,5.2c0.4-0.2,0.8-0.3,1.2-0.4L123.4,34.1z"/>
	<path class="st2" d="M123.4,34.1c-0.3-0.1-0.6-0.2-0.9-0.3l-1.7,5.2c0.4-0.2,0.8-0.3,1.2-0.4L123.4,34.1z"/>
	<path class="st1" d="M129.3,12.1l-3.8,12c0.3,0.1,0.6,0.2,1,0.3l0.4-1.4c-0.1-0.3-0.1-0.6-0.2-0.9c0.1,0,0.2-0.1,0.3-0.1
		c0,0.1,0.1,0.2,0.1,0.3l3.2-10.2c-0.1,0-0.3,0-0.4,0C129.8,12.1,129.5,12.1,129.3,12.1"/>
	<path class="st2" d="M129.3,12.1l-3.8,12c0.3,0.1,0.6,0.2,1,0.3l0.4-1.4c-0.1-0.3-0.1-0.6-0.2-0.9c0.1,0,0.2-0.1,0.3-0.1
		c0,0.1,0.1,0.2,0.1,0.3l3.2-10.2c-0.1,0-0.3,0-0.4,0C129.8,12.1,129.5,12.1,129.3,12.1z"/>
	<path class="st1" d="M123.6,33.4l2.5-7.9c-0.3-0.1-0.6-0.2-0.9-0.4l-2.5,8C123,33.4,123.3,33.5,123.6,33.4"/>
	<path class="st2" d="M123.6,33.4l2.5-7.9c-0.3-0.1-0.6-0.2-0.9-0.4l-2.5,8C123,33.4,123.3,33.5,123.6,33.4z"/>
	<path class="st1" d="M130.1,10.2c0.2-0.1,0.4-0.2,0.6-0.3c0.2-0.1,0.3-0.1,0.5-0.1l3.1-9.7c-0.4,0-0.7,0-1.1,0l-3.2,10.2
		C130,10.2,130,10.2,130.1,10.2"/>
	<path class="st2" d="M130.1,10.2c0.2-0.1,0.4-0.2,0.6-0.3c0.2-0.1,0.3-0.1,0.5-0.1l3.1-9.7c-0.4,0-0.7,0-1.1,0l-3.2,10.2
		C130,10.2,130,10.2,130.1,10.2z"/>
	<path class="st1" d="M120.6,39.8c0.4-0.1,0.7-0.2,1.1-0.2l0.1-0.2c-0.4,0.1-0.7,0.1-1.1,0.2L120.6,39.8z"/>
	<path class="st2" d="M120.6,39.8c0.4-0.1,0.7-0.2,1.1-0.2l0.1-0.2c-0.4,0.1-0.7,0.1-1.1,0.2L120.6,39.8z"/>
	<path class="st1" d="M120.7,39.5L120.7,39.5c0.4-0.1,0.7-0.1,1.1-0.2h0C121.4,39.4,121,39.4,120.7,39.5"/>
	<path class="st2" d="M120.7,39.5L120.7,39.5c0.4-0.1,0.7-0.1,1.1-0.2h0C121.4,39.4,121,39.4,120.7,39.5z"/>
	<path class="st1" d="M122,38.6L122,38.6c-0.4,0.1-0.8,0.2-1.2,0.4v0C121.2,38.8,121.6,38.7,122,38.6"/>
	<path class="st2" d="M122,38.6L122,38.6c-0.4,0.1-0.8,0.2-1.2,0.4v0C121.2,38.8,121.6,38.7,122,38.6z"/>
	<path class="st1" d="M136.5,0.4c-0.1,0.1-0.2,0.1-0.2,0.2c0,0.1,0,0.2,0,0.2L136.5,0.4z"/>
	<path class="st2" d="M136.5,0.4c-0.1,0.1-0.2,0.1-0.2,0.2c0,0.1,0,0.2,0,0.2L136.5,0.4z"/>
	<path class="st1" d="M127.4,29.1l0.1-0.2c-0.1,0-0.2,0-0.3,0C127.2,28.9,127.3,29,127.4,29.1"/>
	<path class="st2" d="M127.4,29.1l0.1-0.2c-0.1,0-0.2,0-0.3,0C127.2,28.9,127.3,29,127.4,29.1z"/>
	<path class="st1" d="M127.9,24.1L127.9,24.1c0.2,0.3,0.5,0.5,0.8,0.8c0,0,0,0,0,0c0,0,0,0,0,0C128.4,24.6,128.1,24.4,127.9,24.1"/>
	<path class="st2" d="M127.9,24.1L127.9,24.1c0.2,0.3,0.5,0.5,0.8,0.8c0,0,0,0,0,0c0,0,0,0,0,0C128.4,24.6,128.1,24.4,127.9,24.1z"
		/>
	<path class="st1" d="M127.2,28.9c0.1,0.1,0.1,0.1,0.2,0.2C127.3,29,127.2,28.9,127.2,28.9L127.2,28.9z"/>
	<path class="st2" d="M127.2,28.9c0.1,0.1,0.1,0.1,0.2,0.2C127.3,29,127.2,28.9,127.2,28.9L127.2,28.9z"/>
	<path class="st1" d="M134.6,6.2C134.6,6.3,134.6,6.3,134.6,6.2C134.6,6.3,134.6,6.3,134.6,6.2"/>
	<path class="st2" d="M134.6,6.2C134.6,6.3,134.6,6.3,134.6,6.2C134.6,6.3,134.6,6.3,134.6,6.2z"/>
	<path class="st1" d="M136.5,0.4L136.5,0.4c-0.1,0.1-0.2,0.1-0.2,0.2v0C136.3,0.6,136.3,0.5,136.5,0.4"/>
	<path class="st2" d="M136.5,0.4L136.5,0.4c-0.1,0.1-0.2,0.1-0.2,0.2v0C136.3,0.6,136.3,0.5,136.5,0.4z"/>
	<path class="st1" d="M133.6,9.3L133.6,9.3c-0.4,0.2-0.7,0.2-1.1,0.3C132.9,9.5,133.3,9.4,133.6,9.3"/>
	<path class="st2" d="M133.6,9.3L133.6,9.3c-0.4,0.2-0.7,0.2-1.1,0.3C132.9,9.5,133.3,9.4,133.6,9.3z"/>
	<path class="st1" d="M134.5,5.5L134.5,5.5c0.1,0.1,0.2,0.1,0.3,0.2C134.7,5.7,134.6,5.6,134.5,5.5"/>
	<path class="st2" d="M134.5,5.5L134.5,5.5c0.1,0.1,0.2,0.1,0.3,0.2C134.7,5.7,134.6,5.6,134.5,5.5z"/>
	<path class="st1" d="M127.3,25.9c0.3,0.1,0.7,0.1,1,0.2l0,0C128,26,127.6,26,127.3,25.9L127.3,25.9z"/>
	<path class="st2" d="M127.3,25.9c0.3,0.1,0.7,0.1,1,0.2l0,0C128,26,127.6,26,127.3,25.9L127.3,25.9z"/>
	<path class="st1" d="M126.4,31.6c-0.4,0.3-0.8,0.6-1.1,0.8v0C125.6,32.2,126,31.9,126.4,31.6c0.1-0.1,0.2-0.2,0.3-0.2v0
		C126.5,31.5,126.5,31.5,126.4,31.6"/>
	<path class="st2" d="M126.4,31.6c-0.4,0.3-0.8,0.6-1.1,0.8v0C125.6,32.2,126,31.9,126.4,31.6c0.1-0.1,0.2-0.2,0.3-0.2v0
		C126.5,31.5,126.5,31.5,126.4,31.6z"/>
	<path class="st1" d="M123,39.3L123,39.3c0.4,0,0.7,0,1.1-0.1h0C123.8,39.3,123.4,39.3,123,39.3"/>
	<path class="st2" d="M123,39.3L123,39.3c0.4,0,0.7,0,1.1-0.1h0C123.8,39.3,123.4,39.3,123,39.3z"/>
	<path class="st1" d="M128.7,24.9C128.7,24.9,128.7,24.9,128.7,24.9C128.7,24.9,128.7,24.9,128.7,24.9"/>
	<path class="st2" d="M128.7,24.9C128.7,24.9,128.7,24.9,128.7,24.9C128.7,24.9,128.7,24.9,128.7,24.9z"/>
	<path class="st1" d="M132,12.2c-0.1,0-0.3,0-0.4,0C131.8,12.2,131.9,12.2,132,12.2c0.2,0,0.5-0.1,0.7-0.1
		C132.5,12.2,132.3,12.2,132,12.2"/>
	<path class="st2" d="M132,12.2c-0.1,0-0.3,0-0.4,0C131.8,12.2,131.9,12.2,132,12.2c0.2,0,0.5-0.1,0.7-0.1
		C132.5,12.2,132.3,12.2,132,12.2z"/>
	<path class="st1" d="M124.7,34.1L124.7,34.1c0.4-0.6,0.8-0.8,1.4-1C125.6,33.3,125.1,33.6,124.7,34.1"/>
	<path class="st2" d="M124.7,34.1L124.7,34.1c0.4-0.6,0.8-0.8,1.4-1C125.6,33.3,125.1,33.6,124.7,34.1z"/>
	<polyline class="st1" points="134.8,5.7 134.8,5.7 134.8,5.7 	"/>
	<path class="st2" d="M134.8,5.7C134.8,5.7,134.8,5.7,134.8,5.7C134.8,5.7,134.8,5.7,134.8,5.7z"/>
	<path class="st1" d="M136.3,0.6L136.3,0.6c0,0.1,0,0.2,0,0.2v0C136.3,0.8,136.3,0.7,136.3,0.6"/>
	<path class="st2" d="M136.3,0.6L136.3,0.6c0,0.1,0,0.2,0,0.2v0C136.3,0.8,136.3,0.7,136.3,0.6z"/>
	<path class="st1" d="M127.2,28.9C127.2,28.9,127.2,28.9,127.2,28.9c0.1,0,0.2,0,0.3,0v0C127.3,28.9,127.2,28.9,127.2,28.9"/>
	<path class="st2" d="M127.2,28.9C127.2,28.9,127.2,28.9,127.2,28.9c0.1,0,0.2,0,0.3,0v0C127.3,28.9,127.2,28.9,127.2,28.9z"/>
	<path class="st1" d="M134.5,5.5c0,0.2,0.1,0.5,0.1,0.7C134.5,6,134.5,5.8,134.5,5.5"/>
	<path class="st2" d="M134.5,5.5c0,0.2,0.1,0.5,0.1,0.7C134.5,6,134.5,5.8,134.5,5.5z"/>
	<path class="st1" d="M136.6,0.1L136.6,0.1c-0.4,0-0.7,0-1.1,0C135.9,0.1,136.2,0.1,136.6,0.1"/>
	<path class="st2" d="M136.6,0.1L136.6,0.1c-0.4,0-0.7,0-1.1,0C135.9,0.1,136.2,0.1,136.6,0.1z"/>
	<path class="st1" d="M126.4,31.6c0.1-0.1,0.2-0.2,0.3-0.2l0.7-2.3c-0.1-0.1-0.1-0.1-0.2-0.2h0c0,0,0,0,0,0c0.1,0,0.2,0,0.3,0
		l0.9-2.8c-0.3,0-0.7-0.1-1-0.2l-2.1,6.6C125.6,32.2,126,31.9,126.4,31.6"/>
	<path class="st2" d="M126.4,31.6c0.1-0.1,0.2-0.2,0.3-0.2l0.7-2.3c-0.1-0.1-0.1-0.1-0.2-0.2h0c0,0,0,0,0,0c0.1,0,0.2,0,0.3,0
		l0.9-2.8c-0.3,0-0.7-0.1-1-0.2l-2.1,6.6C125.6,32.2,126,31.9,126.4,31.6z"/>
	<path class="st1" d="M131.7,12.2l-3.8,11.9c0.2,0.3,0.5,0.5,0.8,0.8c0,0,0,0,0,0c0,0,0,0,0,0l4-12.7c-0.2,0-0.5,0.1-0.7,0.1
		C131.9,12.2,131.8,12.2,131.7,12.2"/>
	<path class="st2" d="M131.7,12.2l-3.8,11.9c0.2,0.3,0.5,0.5,0.8,0.8c0,0,0,0,0,0c0,0,0,0,0,0l4-12.7c-0.2,0-0.5,0.1-0.7,0.1
		C131.9,12.2,131.8,12.2,131.7,12.2z"/>
	<path class="st1" d="M124.7,34.1l-1.4,4.5c0.3,0,0.5,0.1,0.8,0.2c-0.3,0.1-0.6,0.1-0.9,0.2l-0.1,0.3c0.4,0,0.7,0,1.1-0.1l2-6.2
		C125.6,33.3,125.1,33.6,124.7,34.1"/>
	<path class="st2" d="M124.7,34.1l-1.4,4.5c0.3,0,0.5,0.1,0.8,0.2c-0.3,0.1-0.6,0.1-0.9,0.2l-0.1,0.3c0.4,0,0.7,0,1.1-0.1l2-6.2
		C125.6,33.3,125.1,33.6,124.7,34.1z"/>
	<path class="st1" d="M133.6,9.3l0.9-3c0,0,0-0.1,0-0.1c0-0.2-0.1-0.4-0.1-0.7v0c0.1,0.1,0.2,0.1,0.3,0.2c0,0,0,0,0,0l1.5-4.8
		c0-0.1,0-0.2,0-0.2v0c0-0.1,0.1-0.1,0.2-0.2l0.1-0.4c-0.4,0-0.7,0-1.1,0l-3,9.5C132.9,9.5,133.3,9.4,133.6,9.3"/>
	<path class="st2" d="M133.6,9.3l0.9-3c0,0,0-0.1,0-0.1c0-0.2-0.1-0.4-0.1-0.7v0c0.1,0.1,0.2,0.1,0.3,0.2c0,0,0,0,0,0l1.5-4.8
		c0-0.1,0-0.2,0-0.2v0c0-0.1,0.1-0.1,0.2-0.2l0.1-0.4c-0.4,0-0.7,0-1.1,0l-3,9.5C132.9,9.5,133.3,9.4,133.6,9.3z"/>
	<path class="st1" d="M123.1,39L123.1,39c0.3-0.1,0.6-0.1,0.9-0.2C123.8,38.9,123.5,39,123.1,39"/>
	<path class="st2" d="M123.1,39L123.1,39c0.3-0.1,0.6-0.1,0.9-0.2C123.8,38.9,123.5,39,123.1,39z"/>
	<path class="st1" d="M124.1,38.9c-0.3-0.1-0.5-0.2-0.8-0.2C123.5,38.7,123.8,38.8,124.1,38.9"/>
	<path class="st2" d="M124.1,38.9c-0.3-0.1-0.5-0.2-0.8-0.2C123.5,38.7,123.8,38.8,124.1,38.9z"/>
	<path class="st1" d="M131,24.9l0.1-0.3c0,0,0,0,0,0C131.1,24.7,131.1,24.8,131,24.9"/>
	<path class="st2" d="M131,24.9l0.1-0.3c0,0,0,0,0,0C131.1,24.7,131.1,24.8,131,24.9z"/>
	<path class="st1" d="M126.2,39.3c0.1,0,0.2,0.1,0.2,0.1C126.3,39.4,126.3,39.3,126.2,39.3"/>
	<path class="st2" d="M126.2,39.3c0.1,0,0.2,0.1,0.2,0.1C126.3,39.4,126.3,39.3,126.2,39.3z"/>
	<path class="st1" d="M134.1,11.8L134.1,11.8c0.3-0.1,0.7-0.1,1-0.1c0,0,0,0,0,0v0c0,0,0,0,0,0C134.8,11.7,134.5,11.8,134.1,11.8"/>
	<path class="st2" d="M134.1,11.8L134.1,11.8c0.3-0.1,0.7-0.1,1-0.1c0,0,0,0,0,0v0c0,0,0,0,0,0C134.8,11.7,134.5,11.8,134.1,11.8z"
		/>
	<path class="st1" d="M135.6,8.4c-0.1,0.1-0.3,0.1-0.5,0.2C135.3,8.5,135.5,8.5,135.6,8.4"/>
	<path class="st2" d="M135.6,8.4c-0.1,0.1-0.3,0.1-0.5,0.2C135.3,8.5,135.5,8.5,135.6,8.4z"/>
	<path class="st1" d="M136.3,7.4c0.1,0.1,0.2,0.2,0.3,0.2C136.4,7.5,136.3,7.5,136.3,7.4"/>
	<path class="st2" d="M136.3,7.4c0.1,0.1,0.2,0.2,0.3,0.2C136.4,7.5,136.3,7.5,136.3,7.4z"/>
	<path class="st1" d="M137.7,2.4C137.7,2.4,137.8,2.4,137.7,2.4C137.8,2.4,137.7,2.4,137.7,2.4c-0.1,0.2-0.1,0.4-0.2,0.7
		c0,0-0.1,0-0.1,0c0,0,0.1,0,0.1,0C137.6,2.8,137.6,2.6,137.7,2.4"/>
	<path class="st2" d="M137.7,2.4C137.7,2.4,137.8,2.4,137.7,2.4C137.8,2.4,137.7,2.4,137.7,2.4c-0.1,0.2-0.1,0.4-0.2,0.7
		c0,0-0.1,0-0.1,0c0,0,0.1,0,0.1,0C137.6,2.8,137.6,2.6,137.7,2.4z"/>
	<path class="st1" d="M135.7,8.4c-0.1-0.2-0.1-0.5-0.2-0.7C135.5,7.9,135.6,8.1,135.7,8.4"/>
	<path class="st2" d="M135.7,8.4c-0.1-0.2-0.1-0.5-0.2-0.7C135.5,7.9,135.6,8.1,135.7,8.4z"/>
	<path class="st1" d="M128.9,31.2c-0.2,0.5-0.4,1-0.6,1.4C128.5,32.2,128.7,31.7,128.9,31.2C129,31.2,129,31.3,128.9,31.2
		L128.9,31.2C129,31.3,129,31.2,128.9,31.2"/>
	<path class="st2" d="M128.9,31.2c-0.2,0.5-0.4,1-0.6,1.4C128.5,32.2,128.7,31.7,128.9,31.2C129,31.2,129,31.3,128.9,31.2
		L128.9,31.2C129,31.3,129,31.2,128.9,31.2z"/>
	<path class="st1" d="M138.2,1.2c0-0.2,0.1-0.3,0.1-0.6C138.2,0.8,138.2,1,138.2,1.2c-0.2,0-0.4,0-0.6-0.1v0
		C137.7,1.2,137.9,1.2,138.2,1.2"/>
	<path class="st2" d="M138.2,1.2c0-0.2,0.1-0.3,0.1-0.6C138.2,0.8,138.2,1,138.2,1.2c-0.2,0-0.4,0-0.6-0.1v0
		C137.7,1.2,137.9,1.2,138.2,1.2z"/>
	<path class="st1" d="M137.2,2.3C137.2,2.3,137.2,2.3,137.2,2.3C137.2,2.3,137.2,2.3,137.2,2.3"/>
	<path class="st2" d="M137.2,2.3C137.2,2.3,137.2,2.3,137.2,2.3C137.2,2.3,137.2,2.3,137.2,2.3z"/>
	<path class="st1" d="M137.2,2.3C137.2,2.3,137.1,2.3,137.2,2.3C137.1,2.3,137.2,2.3,137.2,2.3"/>
	<path class="st2" d="M137.2,2.3C137.2,2.3,137.1,2.3,137.2,2.3C137.1,2.3,137.2,2.3,137.2,2.3z"/>
	<path class="st1" d="M130.4,24.9c0-0.2-0.1-0.3-0.1-0.5C130.3,24.5,130.3,24.7,130.4,24.9L130.4,24.9z"/>
	<path class="st2" d="M130.4,24.9c0-0.2-0.1-0.3-0.1-0.5C130.3,24.5,130.3,24.7,130.4,24.9L130.4,24.9z"/>
	<path class="st1" d="M138,2.8c0-0.1-0.1-0.2-0.1-0.2C138,2.6,138,2.7,138,2.8"/>
	<path class="st2" d="M138,2.8c0-0.1-0.1-0.2-0.1-0.2C138,2.6,138,2.7,138,2.8z"/>
	<path class="st1" d="M126.1,39.5L126.1,39.5c0.1,0,0.2,0.1,0.2,0.1v0C126.3,39.5,126.2,39.5,126.1,39.5"/>
	<path class="st2" d="M126.1,39.5L126.1,39.5c0.1,0,0.2,0.1,0.2,0.1v0C126.3,39.5,126.2,39.5,126.1,39.5z"/>
	<path class="st1" d="M137.9,2.5c0-0.1-0.1-0.1-0.1-0.2c0,0-0.1,0-0.1,0c0,0,0.1,0,0.1,0C137.9,2.4,137.9,2.5,137.9,2.5"/>
	<path class="st2" d="M137.9,2.5c0-0.1-0.1-0.1-0.1-0.2c0,0-0.1,0-0.1,0c0,0,0.1,0,0.1,0C137.9,2.4,137.9,2.5,137.9,2.5z"/>
	<path class="st1" d="M137.5,3.1c-0.1,0-0.1,0-0.2,0c-0.1-0.2-0.1-0.4-0.2-0.6v0c0.1,0.2,0.1,0.4,0.2,0.6
		C137.3,3.1,137.4,3.1,137.5,3.1"/>
	<path class="st2" d="M137.5,3.1c-0.1,0-0.1,0-0.2,0c-0.1-0.2-0.1-0.4-0.2-0.6v0c0.1,0.2,0.1,0.4,0.2,0.6
		C137.3,3.1,137.4,3.1,137.5,3.1z"/>
	<path class="st1" d="M127.5,32.8L127.5,32.8c0.3-0.1,0.6-0.1,0.9-0.2C128.1,32.7,127.8,32.8,127.5,32.8"/>
	<path class="st2" d="M127.5,32.8L127.5,32.8c0.3-0.1,0.6-0.1,0.9-0.2C128.1,32.7,127.8,32.8,127.5,32.8z"/>
	<path class="st1" d="M130.2,24.2L130.2,24.2c0,0.1,0,0.1,0.1,0.2C130.2,24.3,130.2,24.2,130.2,24.2"/>
	<path class="st2" d="M130.2,24.2L130.2,24.2c0,0.1,0,0.1,0.1,0.2C130.2,24.3,130.2,24.2,130.2,24.2z"/>
	<path class="st1" d="M131.1,24.6c0,0.1,0,0.2-0.1,0.3l0,0C131.1,24.8,131.1,24.7,131.1,24.6C131.1,24.6,131.1,24.6,131.1,24.6
		C131.1,24.6,131.1,24.6,131.1,24.6"/>
	<path class="st2" d="M131.1,24.6c0,0.1,0,0.2-0.1,0.3l0,0C131.1,24.8,131.1,24.7,131.1,24.6C131.1,24.6,131.1,24.6,131.1,24.6
		C131.1,24.6,131.1,24.6,131.1,24.6z"/>
	<path class="st1" d="M130.4,24.9L130.4,24.9c-0.1,0-0.3,0-0.4,0.1C130.1,24.9,130.2,24.9,130.4,24.9"/>
	<path class="st2" d="M130.4,24.9L130.4,24.9c-0.1,0-0.3,0-0.4,0.1C130.1,24.9,130.2,24.9,130.4,24.9z"/>
	<path class="st1" d="M138,0.1c0.4,0,0.6,0.1,0.8,0.2C138.7,0.1,138.4,0,138,0.1h-0.1h0H138z"/>
	<path class="st2" d="M138,0.1c0.4,0,0.6,0.1,0.8,0.2C138.7,0.1,138.4,0,138,0.1h-0.1h0H138z"/>
	<path class="st1" d="M135.7,6.8L135.7,6.8c0.2,0.2,0.4,0.4,0.5,0.6C136.1,7.2,135.9,7,135.7,6.8"/>
	<path class="st2" d="M135.7,6.8L135.7,6.8c0.2,0.2,0.4,0.4,0.5,0.6C136.1,7.2,135.9,7,135.7,6.8z"/>
	<path class="st1" d="M138.6,1L138.6,1c-0.1-0.2-0.1-0.5-0.2-0.8c0,0.2-0.1,0.3-0.1,0.4c0-0.1,0.1-0.2,0.1-0.4
		C138.5,0.5,138.5,0.8,138.6,1"/>
	<path class="st2" d="M138.6,1L138.6,1c-0.1-0.2-0.1-0.5-0.2-0.8c0,0.2-0.1,0.3-0.1,0.4c0-0.1,0.1-0.2,0.1-0.4
		C138.5,0.5,138.5,0.8,138.6,1z"/>
	<path class="st1" d="M137.2,2.3L137.2,2.3C137.2,2.3,137.2,2.3,137.2,2.3C137.2,2.3,137.2,2.3,137.2,2.3"/>
	<path class="st2" d="M137.2,2.3L137.2,2.3C137.2,2.3,137.2,2.3,137.2,2.3C137.2,2.3,137.2,2.3,137.2,2.3z"/>
	<path class="st1" d="M126.6,38.9L126.6,38.9c-0.4-0.1-0.8,0-1.1,0.3v0C125.8,38.9,126.2,38.8,126.6,38.9"/>
	<path class="st2" d="M126.6,38.9L126.6,38.9c-0.4-0.1-0.8,0-1.1,0.3v0C125.8,38.9,126.2,38.8,126.6,38.9z"/>
	<path class="st1" d="M135.7,8.4L135.7,8.4C135.7,8.4,135.6,8.4,135.7,8.4C135.6,8.4,135.7,8.4,135.7,8.4"/>
	<path class="st2" d="M135.7,8.4L135.7,8.4C135.7,8.4,135.6,8.4,135.7,8.4C135.6,8.4,135.7,8.4,135.7,8.4z"/>
	<path class="st1" d="M135.7,8.4c-0.1-0.2-0.1-0.5-0.2-0.7l-0.3,1C135.3,8.5,135.5,8.5,135.7,8.4C135.6,8.4,135.7,8.4,135.7,8.4"/>
	<path class="st2" d="M135.7,8.4c-0.1-0.2-0.1-0.5-0.2-0.7l-0.3,1C135.3,8.5,135.5,8.5,135.7,8.4C135.6,8.4,135.7,8.4,135.7,8.4z"/>
	<path class="st1" d="M138.2,1.2c0-0.2,0.1-0.3,0.1-0.6c0-0.1,0.1-0.2,0.1-0.4c0.1,0.3,0.1,0.5,0.2,0.8l0.2-0.7
		c-0.2-0.2-0.4-0.2-0.8-0.2h-0.1l-0.3,1.1C137.7,1.2,137.9,1.2,138.2,1.2"/>
	<path class="st2" d="M138.2,1.2c0-0.2,0.1-0.3,0.1-0.6c0-0.1,0.1-0.2,0.1-0.4c0.1,0.3,0.1,0.5,0.2,0.8l0.2-0.7
		c-0.2-0.2-0.4-0.2-0.8-0.2h-0.1l-0.3,1.1C137.7,1.2,137.9,1.2,138.2,1.2z"/>
	<path class="st1" d="M131.1,24.6C131.1,24.6,131.1,24.6,131.1,24.6l4.1-12.8c0,0,0,0,0,0c-0.3,0-0.7,0.1-1,0.1l-3.9,12.3
		c0,0.1,0,0.1,0.1,0.2c0,0.2,0.1,0.3,0.1,0.5h0c-0.1,0-0.3,0-0.4,0.1l-0.1,0.3c0.3,0.2,0.6,0.3,0.9,0.5l0.3-0.8
		C131.1,24.8,131.1,24.7,131.1,24.6"/>
	<path class="st2" d="M131.1,24.6C131.1,24.6,131.1,24.6,131.1,24.6l4.1-12.8c0,0,0,0,0,0c-0.3,0-0.7,0.1-1,0.1l-3.9,12.3
		c0,0.1,0,0.1,0.1,0.2c0,0.2,0.1,0.3,0.1,0.5h0c-0.1,0-0.3,0-0.4,0.1l-0.1,0.3c0.3,0.2,0.6,0.3,0.9,0.5l0.3-0.8
		C131.1,24.8,131.1,24.7,131.1,24.6z"/>
	<path class="st1" d="M137.2,2.3C137.2,2.3,137.2,2.3,137.2,2.3l-0.1,0C137.1,2.3,137.2,2.3,137.2,2.3
		C137.2,2.3,137.2,2.3,137.2,2.3"/>
	<path class="st2" d="M137.2,2.3C137.2,2.3,137.2,2.3,137.2,2.3l-0.1,0C137.1,2.3,137.2,2.3,137.2,2.3
		C137.2,2.3,137.2,2.3,137.2,2.3z"/>
	<path class="st1" d="M128.9,31.2c-0.2,0.5-0.4,1-0.6,1.4c-0.3,0.1-0.6,0.1-0.9,0.2l-2,6.4c0.4-0.3,0.8-0.4,1.1-0.3L128.9,31.2
		C129,31.3,129,31.2,128.9,31.2"/>
	<path class="st2" d="M128.9,31.2c-0.2,0.5-0.4,1-0.6,1.4c-0.3,0.1-0.6,0.1-0.9,0.2l-2,6.4c0.4-0.3,0.8-0.4,1.1-0.3L128.9,31.2
		C129,31.3,129,31.2,128.9,31.2z"/>
	<path class="st1" d="M136.5,7.6l1.5-4.8c0-0.1-0.1-0.2-0.1-0.2c0-0.1-0.1-0.1-0.1-0.2c0,0-0.1,0-0.1,0c0,0-0.1,0-0.1,0
		c-0.1,0.2-0.1,0.4-0.2,0.7c0,0-0.1,0-0.1,0c-0.1,0-0.1,0-0.2,0c-0.1-0.2-0.1-0.4-0.2-0.6l-1.3,4.2c0.2,0.2,0.4,0.4,0.5,0.6
		C136.3,7.5,136.4,7.5,136.5,7.6"/>
	<path class="st2" d="M136.5,7.6l1.5-4.8c0-0.1-0.1-0.2-0.1-0.2c0-0.1-0.1-0.1-0.1-0.2c0,0-0.1,0-0.1,0c0,0-0.1,0-0.1,0
		c-0.1,0.2-0.1,0.4-0.2,0.7c0,0-0.1,0-0.1,0c-0.1,0-0.1,0-0.2,0c-0.1-0.2-0.1-0.4-0.2-0.6l-1.3,4.2c0.2,0.2,0.4,0.4,0.5,0.6
		C136.3,7.5,136.4,7.5,136.5,7.6z"/>
	<path class="st1" d="M126.1,39.5L126.1,39.5c0-0.1,0-0.1,0.1-0.2C126.2,39.3,126.2,39.4,126.1,39.5"/>
	<path class="st2" d="M126.1,39.5L126.1,39.5c0-0.1,0-0.1,0.1-0.2C126.2,39.3,126.2,39.4,126.1,39.5z"/>
	<path class="st1" d="M126.1,39.5c0.1,0,0.2,0.1,0.2,0.1l0.1-0.2c-0.1,0-0.2-0.1-0.2-0.1C126.2,39.3,126.2,39.4,126.1,39.5"/>
	<path class="st2" d="M126.1,39.5c0.1,0,0.2,0.1,0.2,0.1l0.1-0.2c-0.1,0-0.2-0.1-0.2-0.1C126.2,39.3,126.2,39.4,126.1,39.5z"/>
	<path class="st1" d="M139.4,4.1c0-0.3-0.1-0.6-0.2-0.9C139.3,3.5,139.4,3.7,139.4,4.1"/>
	<path class="st2" d="M139.4,4.1c0-0.3-0.1-0.6-0.2-0.9C139.3,3.5,139.4,3.7,139.4,4.1z"/>
	<path class="st1" d="M128.5,38.2c0.1-0.3,0.3-0.5,0.5-0.8c0.2-0.3,0.4-0.6,0.7-0.9c-0.2,0.3-0.4,0.6-0.7,0.9
		C128.8,37.7,128.6,38,128.5,38.2"/>
	<path class="st2" d="M128.5,38.2c0.1-0.3,0.3-0.5,0.5-0.8c0.2-0.3,0.4-0.6,0.7-0.9c-0.2,0.3-0.4,0.6-0.7,0.9
		C128.8,37.7,128.6,38,128.5,38.2z"/>
	<path class="st1" d="M127.7,39.4c0.1,0,0.2,0,0.2,0c0.1-0.2,0.1-0.4,0.2-0.5c-0.1,0.2-0.1,0.4-0.2,0.5
		C127.9,39.4,127.8,39.4,127.7,39.4"/>
	<path class="st2" d="M127.7,39.4c0.1,0,0.2,0,0.2,0c0.1-0.2,0.1-0.4,0.2-0.5c-0.1,0.2-0.1,0.4-0.2,0.5
		C127.9,39.4,127.8,39.4,127.7,39.4z"/>
	<path class="st1" d="M135.9,16.8c0-0.2,0-0.4-0.1-0.6C135.9,16.4,135.9,16.6,135.9,16.8C135.9,16.8,135.9,16.8,135.9,16.8
		C135.9,16.8,135.9,16.8,135.9,16.8"/>
	<path class="st2" d="M135.9,16.8c0-0.2,0-0.4-0.1-0.6C135.9,16.4,135.9,16.6,135.9,16.8C135.9,16.8,135.9,16.8,135.9,16.8
		C135.9,16.8,135.9,16.8,135.9,16.8z"/>
	<path class="st1" d="M132.8,25.5C132.9,25.5,132.9,25.5,132.8,25.5C132.9,25.5,132.9,25.5,132.8,25.5c-0.2,0-0.5,0.1-0.7,0.1l0,0
		C132.3,25.5,132.6,25.5,132.8,25.5"/>
	<path class="st2" d="M132.8,25.5C132.9,25.5,132.9,25.5,132.8,25.5C132.9,25.5,132.9,25.5,132.8,25.5c-0.2,0-0.5,0.1-0.7,0.1l0,0
		C132.3,25.5,132.6,25.5,132.8,25.5z"/>
	<path class="st1" d="M135.8,15.6c0-0.7,0.1-1.3,0.4-1.9C135.9,14.3,135.8,14.9,135.8,15.6"/>
	<path class="st2" d="M135.8,15.6c0-0.7,0.1-1.3,0.4-1.9C135.9,14.3,135.8,14.9,135.8,15.6z"/>
	<path class="st1" d="M139.2,4.8c0,0.1,0,0.2,0.1,0.3C139.2,5,139.2,4.9,139.2,4.8"/>
	<path class="st2" d="M139.2,4.8c0,0.1,0,0.2,0.1,0.3C139.2,5,139.2,4.9,139.2,4.8z"/>
	<path class="st1" d="M127.8,40.5c-0.1-0.1-0.3-0.2-0.4-0.2v0C127.6,40.3,127.7,40.4,127.8,40.5L127.8,40.5z"/>
	<path class="st2" d="M127.8,40.5c-0.1-0.1-0.3-0.2-0.4-0.2v0C127.6,40.3,127.7,40.4,127.8,40.5L127.8,40.5z"/>
	<path class="st1" d="M127.6,41.3c0-0.2,0.1-0.3,0.2-0.6C127.7,41,127.7,41.1,127.6,41.3"/>
	<path class="st2" d="M127.6,41.3c0-0.2,0.1-0.3,0.2-0.6C127.7,41,127.7,41.1,127.6,41.3z"/>
	<path class="st1" d="M137.7,8.1c0.1,0,0.3,0,0.4,0C138,8.1,137.8,8.1,137.7,8.1"/>
	<path class="st2" d="M137.7,8.1c0.1,0,0.3,0,0.4,0C138,8.1,137.8,8.1,137.7,8.1z"/>
	<path class="st1" d="M130.3,33.6c-0.2,0.1-0.5,0.2-0.8,0.2C129.8,33.7,130,33.7,130.3,33.6c0.1-0.1,0.3-0.2,0.4-0.2
		C130.5,33.4,130.4,33.5,130.3,33.6"/>
	<path class="st2" d="M130.3,33.6c-0.2,0.1-0.5,0.2-0.8,0.2C129.8,33.7,130,33.7,130.3,33.6c0.1-0.1,0.3-0.2,0.4-0.2
		C130.5,33.4,130.4,33.5,130.3,33.6z"/>
	<path class="st1" d="M138.6,8.3L138.6,8.3c0-0.1-0.1-0.2-0.1-0.4C138.6,8,138.6,8.1,138.6,8.3"/>
	<path class="st2" d="M138.6,8.3L138.6,8.3c0-0.1-0.1-0.2-0.1-0.4C138.6,8,138.6,8.1,138.6,8.3z"/>
	<path class="st1" d="M128.8,39c0.1-0.1,0.1-0.2,0.2-0.3v0C128.9,38.8,128.9,38.9,128.8,39"/>
	<path class="st2" d="M128.8,39c0.1-0.1,0.1-0.2,0.2-0.3v0C128.9,38.8,128.9,38.9,128.8,39z"/>
	<path class="st1" d="M136.4,12.1L136.4,12.1c0.1,0.1,0.2,0.2,0.2,0.4C136.5,12.4,136.5,12.2,136.4,12.1"/>
	<path class="st2" d="M136.4,12.1L136.4,12.1c0.1,0.1,0.2,0.2,0.2,0.4C136.5,12.4,136.5,12.2,136.4,12.1z"/>
	<path class="st1" d="M131,32.3C131,32.3,131,32.3,131,32.3L131,32.3C131,32.3,131,32.3,131,32.3L131,32.3z"/>
	<path class="st2" d="M131,32.3C131,32.3,131,32.3,131,32.3L131,32.3C131,32.3,131,32.3,131,32.3L131,32.3z"/>
	<path class="st1" d="M139.9,4.2L139.9,4.2c-0.2-0.6-0.3-1.2-0.5-1.9C139.6,2.9,139.8,3.6,139.9,4.2"/>
	<path class="st2" d="M139.9,4.2L139.9,4.2c-0.2-0.6-0.3-1.2-0.5-1.9C139.6,2.9,139.8,3.6,139.9,4.2z"/>
	<path class="st1" d="M138.1,6.7L138.1,6.7C138.1,6.7,138.1,6.7,138.1,6.7c0.2,0.4,0.3,0.8,0.4,1.2C138.4,7.5,138.3,7.1,138.1,6.7
		C138.1,6.7,138.1,6.7,138.1,6.7"/>
	<path class="st2" d="M138.1,6.7L138.1,6.7C138.1,6.7,138.1,6.7,138.1,6.7c0.2,0.4,0.3,0.8,0.4,1.2C138.4,7.5,138.3,7.1,138.1,6.7
		C138.1,6.7,138.1,6.7,138.1,6.7z"/>
	<path class="st1" d="M128.5,38.2c-0.1,0.2-0.2,0.4-0.3,0.6C128.3,38.6,128.4,38.4,128.5,38.2"/>
	<path class="st2" d="M128.5,38.2c-0.1,0.2-0.2,0.4-0.3,0.6C128.3,38.6,128.4,38.4,128.5,38.2z"/>
	<path class="st1" d="M136.6,12.5c0,0.3,0,0.7-0.3,1.1C136.5,13.2,136.6,12.8,136.6,12.5"/>
	<path class="st2" d="M136.6,12.5c0,0.3,0,0.7-0.3,1.1C136.5,13.2,136.6,12.8,136.6,12.5z"/>
	<path class="st1" d="M135.9,16.2c0-0.2,0-0.4,0-0.6C135.8,15.8,135.9,16,135.9,16.2"/>
	<path class="st2" d="M135.9,16.2c0-0.2,0-0.4,0-0.6C135.8,15.8,135.9,16,135.9,16.2z"/>
	<path class="st1" d="M139.4,4.1c0,0.1,0,0.2,0,0.4C139.4,4.3,139.4,4.2,139.4,4.1"/>
	<path class="st2" d="M139.4,4.1c0,0.1,0,0.2,0,0.4C139.4,4.3,139.4,4.2,139.4,4.1z"/>
	<path class="st1" d="M139.6,5.4L139.6,5.4c-0.1-0.1-0.1-0.2-0.2-0.3c0,0,0-0.1-0.1-0.1c0,0,0,0.1,0.1,0.1
		C139.4,5.2,139.5,5.3,139.6,5.4"/>
	<path class="st2" d="M139.6,5.4L139.6,5.4c-0.1-0.1-0.1-0.2-0.2-0.3c0,0,0-0.1-0.1-0.1c0,0,0,0.1,0.1,0.1
		C139.4,5.2,139.5,5.3,139.6,5.4z"/>
	<path class="st1" d="M127.7,39.4C127.7,39.4,127.7,39.4,127.7,39.4C127.7,39.4,127.7,39.4,127.7,39.4"/>
	<path class="st2" d="M127.7,39.4C127.7,39.4,127.7,39.4,127.7,39.4C127.7,39.4,127.7,39.4,127.7,39.4z"/>
	<path class="st1" d="M133.1,25.6L133.1,25.6c-0.1,0-0.2,0-0.3-0.1C133,25.6,133.1,25.6,133.1,25.6"/>
	<path class="st2" d="M133.1,25.6L133.1,25.6c-0.1,0-0.2,0-0.3-0.1C133,25.6,133.1,25.6,133.1,25.6z"/>
	<path class="st1" d="M139.1,6.7L139.1,6.7c-0.2-0.5-0.4-1.1-0.5-1.6v0C138.8,5.6,139,6.2,139.1,6.7"/>
	<path class="st2" d="M139.1,6.7L139.1,6.7c-0.2-0.5-0.4-1.1-0.5-1.6v0C138.8,5.6,139,6.2,139.1,6.7z"/>
	<path class="st1" d="M139.4,4.1c0,0.1,0,0.2,0,0.4c0,0.1-0.1,0.3-0.1,0.4c0,0.1,0,0.2,0.1,0.3c0,0,0,0.1,0.1,0.1
		c0.1,0.1,0.1,0.2,0.2,0.3l0.4-1.2c-0.2-0.6-0.3-1.2-0.5-1.9l-0.3,0.8C139.3,3.5,139.4,3.7,139.4,4.1"/>
	<path class="st2" d="M139.4,4.1c0,0.1,0,0.2,0,0.4c0,0.1-0.1,0.3-0.1,0.4c0,0.1,0,0.2,0.1,0.3c0,0,0,0.1,0.1,0.1
		c0.1,0.1,0.1,0.2,0.2,0.3l0.4-1.2c-0.2-0.6-0.3-1.2-0.5-1.9l-0.3,0.8C139.3,3.5,139.4,3.7,139.4,4.1z"/>
	<path class="st1" d="M131,32.3L131,32.3C131,32.3,131,32.3,131,32.3L131,32.3z"/>
	<path class="st2" d="M131,32.3L131,32.3C131,32.3,131,32.3,131,32.3L131,32.3z"/>
	<path class="st1" d="M135.9,16.8c0-0.2,0-0.4-0.1-0.6c0-0.2,0-0.4,0-0.6c0-0.7,0.1-1.3,0.4-1.9c0.3-0.4,0.3-0.8,0.3-1.1
		c0-0.2-0.1-0.3-0.2-0.4l-4.3,13.4c0.2,0,0.5-0.1,0.7-0.1c0,0,0,0,0.1,0.1c0.1,0,0.2,0,0.3,0.1L135.9,16.8
		C135.9,16.8,135.9,16.8,135.9,16.8"/>
	<path class="st2" d="M135.9,16.8c0-0.2,0-0.4-0.1-0.6c0-0.2,0-0.4,0-0.6c0-0.7,0.1-1.3,0.4-1.9c0.3-0.4,0.3-0.8,0.3-1.1
		c0-0.2-0.1-0.3-0.2-0.4l-4.3,13.4c0.2,0,0.5-0.1,0.7-0.1c0,0,0,0,0.1,0.1c0.1,0,0.2,0,0.3,0.1L135.9,16.8
		C135.9,16.8,135.9,16.8,135.9,16.8z"/>
	<path class="st1" d="M138.1,8.1c-0.1-0.2-0.2-0.3-0.3-0.5l-0.1,0.4C137.8,8.1,138,8.1,138.1,8.1"/>
	<path class="st2" d="M138.1,8.1c-0.1-0.2-0.2-0.3-0.3-0.5l-0.1,0.4C137.8,8.1,138,8.1,138.1,8.1z"/>
	<path class="st1" d="M138.1,6.7C138.1,6.7,138.1,6.7,138.1,6.7c0.2,0.4,0.3,0.8,0.4,1.2c0,0.1,0.1,0.2,0.1,0.4l0.5-1.6
		c-0.2-0.5-0.4-1.1-0.5-1.6L138.1,6.7z"/>
	<path class="st2" d="M138.1,6.7C138.1,6.7,138.1,6.7,138.1,6.7c0.2,0.4,0.3,0.8,0.4,1.2c0,0.1,0.1,0.2,0.1,0.4l0.5-1.6
		c-0.2-0.5-0.4-1.1-0.5-1.6L138.1,6.7z"/>
	<path class="st1" d="M129.5,33.8l-1.8,5.6c0,0,0,0,0,0c0.1,0,0.2,0,0.2,0c0.1-0.2,0.1-0.4,0.2-0.5c0.1-0.2,0.2-0.4,0.3-0.6
		c0.1-0.3,0.3-0.5,0.5-0.8c0.2-0.3,0.4-0.6,0.7-0.9l1-3.2c-0.1,0.1-0.3,0.2-0.4,0.2C130,33.7,129.8,33.7,129.5,33.8"/>
	<path class="st2" d="M129.5,33.8l-1.8,5.6c0,0,0,0,0,0c0.1,0,0.2,0,0.2,0c0.1-0.2,0.1-0.4,0.2-0.5c0.1-0.2,0.2-0.4,0.3-0.6
		c0.1-0.3,0.3-0.5,0.5-0.8c0.2-0.3,0.4-0.6,0.7-0.9l1-3.2c-0.1,0.1-0.3,0.2-0.4,0.2C130,33.7,129.8,33.7,129.5,33.8z"/>
	<path class="st1" d="M127.8,41.3c0,0-0.1,0-0.1,0v0C127.7,41.3,127.7,41.3,127.8,41.3"/>
	<path class="st2" d="M127.8,41.3c0,0-0.1,0-0.1,0v0C127.7,41.3,127.7,41.3,127.8,41.3z"/>
	<path class="st1" d="M127.8,40.5L127.8,40.5c0,0.1,0,0.2-0.1,0.3C127.8,40.6,127.8,40.6,127.8,40.5"/>
	<path class="st2" d="M127.8,40.5L127.8,40.5c0,0.1,0,0.2-0.1,0.3C127.8,40.6,127.8,40.6,127.8,40.5z"/>
	<path class="st1" d="M127.5,39.9L127.5,39.9c0.2,0.1,0.4,0.2,0.6,0.3c0.2-0.4,0.4-0.8,0.7-1.2c-0.2,0.4-0.4,0.8-0.7,1.2
		C127.9,40.1,127.8,40,127.5,39.9"/>
	<path class="st2" d="M127.5,39.9L127.5,39.9c0.2,0.1,0.4,0.2,0.6,0.3c0.2-0.4,0.4-0.8,0.7-1.2c-0.2,0.4-0.4,0.8-0.7,1.2
		C127.9,40.1,127.8,40,127.5,39.9z"/>
	<path class="st1" d="M128.8,39c-0.2,0.4-0.4,0.8-0.7,1.2c-0.2-0.1-0.4-0.2-0.6-0.3l-0.1,0.3c0.1,0.1,0.3,0.2,0.4,0.2v0
		c0,0.1,0,0.2-0.1,0.3c-0.1,0.3-0.1,0.4-0.2,0.6c0,0,0.1,0,0.1,0c0.3-0.4,0.5-0.8,0.8-1.2l0.4-1.4C128.9,38.8,128.9,38.9,128.8,39"
		/>
	<path class="st2" d="M128.8,39c-0.2,0.4-0.4,0.8-0.7,1.2c-0.2-0.1-0.4-0.2-0.6-0.3l-0.1,0.3c0.1,0.1,0.3,0.2,0.4,0.2v0
		c0,0.1,0,0.2-0.1,0.3c-0.1,0.3-0.1,0.4-0.2,0.6c0,0,0.1,0,0.1,0c0.3-0.4,0.5-0.8,0.8-1.2l0.4-1.4C128.9,38.8,128.9,38.9,128.8,39z"
		/>
	<path class="st1" d="M139.5,9.7c0.2,0.1,0.4,0.2,0.6,0.3C139.8,9.9,139.6,9.8,139.5,9.7"/>
	<path class="st2" d="M139.5,9.7c0.2,0.1,0.4,0.2,0.6,0.3C139.8,9.9,139.6,9.8,139.5,9.7z"/>
	<path class="st1" d="M140.1,9.7c0,0.1,0,0.2,0,0.3C140.1,9.9,140.1,9.8,140.1,9.7"/>
	<path class="st2" d="M140.1,9.7c0,0.1,0,0.2,0,0.3C140.1,9.9,140.1,9.8,140.1,9.7z"/>
	<path class="st1" d="M135.4,25.2c0.1-0.1,0.2-0.2,0.2-0.3C135.6,25,135.5,25.1,135.4,25.2"/>
	<path class="st2" d="M135.4,25.2c0.1-0.1,0.2-0.2,0.2-0.3C135.6,25,135.5,25.1,135.4,25.2z"/>
	<path class="st1" d="M135.6,24.8L135.6,24.8c0-0.1-0.1-0.2-0.1-0.3C135.6,24.6,135.6,24.7,135.6,24.8"/>
	<path class="st2" d="M135.6,24.8L135.6,24.8c0-0.1-0.1-0.2-0.1-0.3C135.6,24.6,135.6,24.7,135.6,24.8z"/>
	<path class="st1" d="M132.1,34c0-0.2-0.1-0.6-0.1-0.8C132,33.4,132.1,33.7,132.1,34"/>
	<path class="st2" d="M132.1,34c0-0.2-0.1-0.6-0.1-0.8C132,33.4,132.1,33.7,132.1,34z"/>
	<path class="st1" d="M131.3,35.9c-0.1,0.1-0.2,0.2-0.3,0.3l0,0C131.2,36.1,131.3,36,131.3,35.9"/>
	<path class="st2" d="M131.3,35.9c-0.1,0.1-0.2,0.2-0.3,0.3l0,0C131.2,36.1,131.3,36,131.3,35.9z"/>
	<path class="st1" d="M138.7,12C138.8,12,138.8,12,138.7,12C138.8,12,138.8,12,138.7,12"/>
	<path class="st2" d="M138.7,12C138.8,12,138.8,12,138.7,12C138.8,12,138.8,12,138.7,12z"/>
</g>
<path class="st3" d="M132,33.2L132,33.2L132,33.2z"/>
<path class="st4" d="M132,33.2L132,33.2L132,33.2z"/>
<g class="st0">
	<path class="st1" d="M134.4,25.6c0.4-0.1,0.7-0.2,1-0.5C135.1,25.4,134.8,25.6,134.4,25.6"/>
	<path class="st2" d="M134.4,25.6c0.4-0.1,0.7-0.2,1-0.5C135.1,25.4,134.8,25.6,134.4,25.6z"/>
	<path class="st1" d="M132.3,32.7c0,0-0.1,0-0.1,0C132.2,32.7,132.3,32.7,132.3,32.7"/>
	<path class="st2" d="M132.3,32.7c0,0-0.1,0-0.1,0C132.2,32.7,132.3,32.7,132.3,32.7z"/>
	<path class="st1" d="M138.8,12c0.3,0,0.7,0,0.9,0.3v0C139.5,12.1,139.1,12,138.8,12"/>
	<path class="st2" d="M138.8,12c0.3,0,0.7,0,0.9,0.3v0C139.5,12.1,139.1,12,138.8,12z"/>
	<path class="st1" d="M135.6,24.6c0-0.4,0.1-0.5,0.4-0.5C135.7,24.1,135.5,24.2,135.6,24.6"/>
	<path class="st2" d="M135.6,24.6c0-0.4,0.1-0.5,0.4-0.5C135.7,24.1,135.5,24.2,135.6,24.6z"/>
	<path class="st1" d="M141,8.1L141,8.1c-0.2-0.6-0.4-1.1-0.5-1.7C140.7,6.9,140.9,7.5,141,8.1"/>
	<path class="st2" d="M141,8.1L141,8.1c-0.2-0.6-0.4-1.1-0.5-1.7C140.7,6.9,140.9,7.5,141,8.1z"/>
	<path class="st1" d="M140.1,9.5c0,0.1,0,0.1,0,0.2C140.1,9.6,140.1,9.6,140.1,9.5c-0.1-0.3-0.2-0.6-0.3-0.8v0
		C139.9,8.9,140,9.2,140.1,9.5"/>
	<path class="st2" d="M140.1,9.5c0,0.1,0,0.1,0,0.2C140.1,9.6,140.1,9.6,140.1,9.5c-0.1-0.3-0.2-0.6-0.3-0.8v0
		C139.9,8.9,140,9.2,140.1,9.5z"/>
	<path class="st1" d="M140.7,9C140.7,9,140.7,9.1,140.7,9C140.7,9.1,140.7,9,140.7,9c-0.1-0.7-0.1-1.4-0.4-2.1
		C140.6,7.6,140.7,8.3,140.7,9"/>
	<path class="st2" d="M140.7,9C140.7,9,140.7,9.1,140.7,9C140.7,9.1,140.7,9,140.7,9c-0.1-0.7-0.1-1.4-0.4-2.1
		C140.6,7.6,140.7,8.3,140.7,9z"/>
	<path class="st1" d="M131.6,34.4L131.6,34.4c0.4,0,0.5-0.2,0.5-0.4C132.1,34.2,132,34.4,131.6,34.4"/>
	<path class="st2" d="M131.6,34.4L131.6,34.4c0.4,0,0.5-0.2,0.5-0.4C132.1,34.2,132,34.4,131.6,34.4z"/>
	<path class="st1" d="M135.6,24.8L135.6,24.8C135.6,24.9,135.6,24.9,135.6,24.8C135.6,24.9,135.6,24.9,135.6,24.8"/>
	<path class="st2" d="M135.6,24.8L135.6,24.8C135.6,24.9,135.6,24.9,135.6,24.8C135.6,24.9,135.6,24.9,135.6,24.8z"/>
	<path class="st1" d="M138.8,12C138.8,12,138.8,12,138.8,12l-4.4,13.6c0.4-0.1,0.7-0.2,1-0.5c0.1-0.1,0.2-0.2,0.2-0.3
		c0,0,0-0.1,0-0.1c0-0.1,0-0.2-0.1-0.3c0-0.4,0.1-0.5,0.4-0.5l3.7-11.8C139.5,12.1,139.1,12,138.8,12"/>
	<path class="st2" d="M138.8,12C138.8,12,138.8,12,138.8,12l-4.4,13.6c0.4-0.1,0.7-0.2,1-0.5c0.1-0.1,0.2-0.2,0.2-0.3
		c0,0,0-0.1,0-0.1c0-0.1,0-0.2-0.1-0.3c0-0.4,0.1-0.5,0.4-0.5l3.7-11.8C139.5,12.1,139.1,12,138.8,12z"/>
	<path class="st1" d="M132.1,32.9c0-0.1,0.1-0.1,0.2-0.2c0,0-0.1,0-0.1,0L132.1,32.9z"/>
	<path class="st2" d="M132.1,32.9c0-0.1,0.1-0.1,0.2-0.2c0,0-0.1,0-0.1,0L132.1,32.9z"/>
	<path class="st1" d="M132,33.2l-0.4,1.2c0.4,0,0.5-0.2,0.5-0.4C132.1,33.7,132,33.4,132,33.2L132,33.2z"/>
	<path class="st2" d="M132,33.2l-0.4,1.2c0.4,0,0.5-0.2,0.5-0.4C132.1,33.7,132,33.4,132,33.2L132,33.2z"/>
	<path class="st1" d="M139.8,8.7l-0.3,1.1c0.2,0.1,0.4,0.2,0.6,0.3c0-0.1,0-0.2,0-0.3c0-0.1,0-0.2,0-0.2
		C140,9.2,139.9,8.9,139.8,8.7"/>
	<path class="st2" d="M139.8,8.7l-0.3,1.1c0.2,0.1,0.4,0.2,0.6,0.3c0-0.1,0-0.2,0-0.3c0-0.1,0-0.2,0-0.2
		C140,9.2,139.9,8.9,139.8,8.7z"/>
	<path class="st1" d="M140.7,9C140.7,9,140.7,9.1,140.7,9l0.3-1c-0.2-0.6-0.4-1.1-0.5-1.7l-0.2,0.5C140.6,7.6,140.7,8.3,140.7,9"/>
	<path class="st2" d="M140.7,9C140.7,9,140.7,9.1,140.7,9l0.3-1c-0.2-0.6-0.4-1.1-0.5-1.7l-0.2,0.5C140.6,7.6,140.7,8.3,140.7,9z"/>
	<path class="st1" d="M131.1,36.2l-0.1,0.3c0.1-0.2,0.2-0.4,0.4-0.5C131.3,36,131.2,36.1,131.1,36.2"/>
	<path class="st2" d="M131.1,36.2l-0.1,0.3c0.1-0.2,0.2-0.4,0.4-0.5C131.3,36,131.2,36.1,131.1,36.2z"/>
	<path class="st1" d="M141.4,11c0.1,0,0.2-0.1,0.2-0.1c0,0-0.1,0-0.2-0.1L141.4,11z"/>
	<path class="st2" d="M141.4,11c0.1,0,0.2-0.1,0.2-0.1c0,0-0.1,0-0.2-0.1L141.4,11z"/>
	<path class="st1" d="M141.4,11c0.1,0,0.2-0.1,0.2-0.1h0C141.6,10.9,141.5,10.9,141.4,11z"/>
	<path class="st2" d="M141.4,11c0.1,0,0.2-0.1,0.2-0.1h0C141.6,10.9,141.5,10.9,141.4,11z"/>
	<path class="st1" d="M141.2,12.9L141.2,12.9c0.1,0.3,0.3,0.5,0.4,0.8v0C141.5,13.4,141.4,13.2,141.2,12.9"/>
	<path class="st2" d="M141.2,12.9L141.2,12.9c0.1,0.3,0.3,0.5,0.4,0.8v0C141.5,13.4,141.4,13.2,141.2,12.9z"/>
	<path class="st1" d="M142.4,11.2L142.4,11.2c0-0.1-0.1-0.1-0.1-0.2C142.3,11.1,142.4,11.2,142.4,11.2"/>
	<path class="st2" d="M142.4,11.2L142.4,11.2c0-0.1-0.1-0.1-0.1-0.2C142.3,11.1,142.4,11.2,142.4,11.2z"/>
	<path class="st1" d="M141,14.7c0.1,0.1,0.1,0.3,0.2,0.4C141.1,15,141.1,14.8,141,14.7"/>
	<path class="st2" d="M141,14.7c0.1,0.1,0.1,0.3,0.2,0.4C141.1,15,141.1,14.8,141,14.7z"/>
	<path class="st1" d="M142.3,11c-0.2-0.4-0.4-0.8-0.6-1.2C141.9,10.3,142.1,10.7,142.3,11"/>
	<path class="st2" d="M142.3,11c-0.2-0.4-0.4-0.8-0.6-1.2C141.9,10.3,142.1,10.7,142.3,11z"/>
	<path class="st1" d="M139,20.3c-0.1-0.1-0.2-0.2-0.2-0.2c-0.2,0.4-0.4,0.8-0.6,1.1c0.2-0.3,0.4-0.8,0.6-1.1
		C138.8,20.1,138.9,20.2,139,20.3c0.1,0.1,0.2,0.3,0.4,0.4C139.2,20.6,139.1,20.4,139,20.3"/>
	<path class="st2" d="M139,20.3c-0.1-0.1-0.2-0.2-0.2-0.2c-0.2,0.4-0.4,0.8-0.6,1.1c0.2-0.3,0.4-0.8,0.6-1.1
		C138.8,20.1,138.9,20.2,139,20.3c0.1,0.1,0.2,0.3,0.4,0.4C139.2,20.6,139.1,20.4,139,20.3z"/>
	<path class="st1" d="M140.5,13.7c0.1,0.3,0.3,0.7,0.5,1C140.8,14.4,140.7,14.1,140.5,13.7z"/>
	<path class="st2" d="M140.5,13.7c0.1,0.3,0.3,0.7,0.5,1C140.8,14.4,140.7,14.1,140.5,13.7z"/>
	<path class="st1" d="M141.2,11.5L141.2,11.5c0.1,0.1,0.1,0.1,0.2,0.2c0.3,0.1,0.5,0.2,0.7,0.4v0c-0.2-0.2-0.4-0.3-0.7-0.4
		C141.4,11.7,141.3,11.6,141.2,11.5"/>
	<path class="st2" d="M141.2,11.5L141.2,11.5c0.1,0.1,0.1,0.1,0.2,0.2c0.3,0.1,0.5,0.2,0.7,0.4v0c-0.2-0.2-0.4-0.3-0.7-0.4
		C141.4,11.7,141.3,11.6,141.2,11.5z"/>
	<path class="st1" d="M141.7,10.8L141.7,10.8c-0.1,0-0.1,0-0.2-0.1v0C141.5,10.8,141.6,10.8,141.7,10.8"/>
	<path class="st2" d="M141.7,10.8L141.7,10.8c-0.1,0-0.1,0-0.2-0.1v0C141.5,10.8,141.6,10.8,141.7,10.8z"/>
	<path class="st1" d="M141.7,10.8L141.7,10.8L141.7,10.8c-0.1,0-0.2,0.1-0.2,0.1l-0.2,0.6c0.1,0.1,0.1,0.1,0.2,0.2
		c0.3,0.1,0.5,0.2,0.7,0.4l0.3-0.9c0-0.1-0.1-0.1-0.1-0.2c-0.2-0.4-0.4-0.8-0.6-1.2l-0.3,0.9C141.5,10.8,141.6,10.8,141.7,10.8"/>
	<path class="st2" d="M141.7,10.8L141.7,10.8L141.7,10.8c-0.1,0-0.2,0.1-0.2,0.1l-0.2,0.6c0.1,0.1,0.1,0.1,0.2,0.2
		c0.3,0.1,0.5,0.2,0.7,0.4l0.3-0.9c0-0.1-0.1-0.1-0.1-0.2c-0.2-0.4-0.4-0.8-0.6-1.2l-0.3,0.9C141.5,10.8,141.6,10.8,141.7,10.8z"/>
	<path class="st1" d="M138.8,20.1c0,0,0.1,0.1,0.1,0.2c0.1,0.1,0.2,0.3,0.4,0.4l1.8-5.6c0-0.1-0.1-0.3-0.2-0.4
		c-0.2-0.3-0.3-0.6-0.5-1l-2.4,7.6c0,0,0.1,0,0.1-0.1C138.5,20.9,138.6,20.5,138.8,20.1"/>
	<path class="st2" d="M138.8,20.1c0,0,0.1,0.1,0.1,0.2c0.1,0.1,0.2,0.3,0.4,0.4l1.8-5.6c0-0.1-0.1-0.3-0.2-0.4
		c-0.2-0.3-0.3-0.6-0.5-1l-2.4,7.6c0,0,0.1,0,0.1-0.1C138.5,20.9,138.6,20.5,138.8,20.1z"/>
	<path class="st1" d="M141.2,12.9c0.2,0.1,0.4,0.1,0.6,0.1C141.6,13,141.4,12.9,141.2,12.9z"/>
	<path class="st2" d="M141.2,12.9c0.2,0.1,0.4,0.1,0.6,0.1C141.6,13,141.4,12.9,141.2,12.9z"/>
	<path class="st1" d="M141.6,13.7l0.2-0.7c-0.2,0-0.4-0.1-0.6-0.1C141.4,13.2,141.5,13.4,141.6,13.7"/>
	<path class="st2" d="M141.6,13.7l0.2-0.7c-0.2,0-0.4-0.1-0.6-0.1C141.4,13.2,141.5,13.4,141.6,13.7z"/>
	<path class="st1" d="M137.5,30.7L137.5,30.7c0.4-0.3,0.9-0.5,1.3-0.8C138.4,30.2,137.9,30.4,137.5,30.7"/>
	<path class="st2" d="M137.5,30.7L137.5,30.7c0.4-0.3,0.9-0.5,1.3-0.8C138.4,30.2,137.9,30.4,137.5,30.7z"/>
	<path class="st1" d="M143.2,14.2c0.1,0.3,0.2,0.5,0.3,0.8C143.4,14.7,143.3,14.5,143.2,14.2"/>
	<path class="st2" d="M143.2,14.2c0.1,0.3,0.2,0.5,0.3,0.8C143.4,14.7,143.3,14.5,143.2,14.2z"/>
	<path class="st1" d="M141.2,19.4C141.2,19.3,141.1,19.3,141.2,19.4C141.1,19.3,141.2,19.3,141.2,19.4"/>
	<path class="st2" d="M141.2,19.4C141.2,19.3,141.1,19.3,141.2,19.4C141.1,19.3,141.2,19.3,141.2,19.4z"/>
	<path class="st1" d="M142.4,15.2L142.4,15.2c0.1,0.1,0.2,0.2,0.3,0.3c0.1-0.1,0.2-0.3,0.3-0.4c-0.1,0.1-0.2,0.3-0.3,0.4
		C142.6,15.4,142.5,15.3,142.4,15.2"/>
	<path class="st2" d="M142.4,15.2L142.4,15.2c0.1,0.1,0.2,0.2,0.3,0.3c0.1-0.1,0.2-0.3,0.3-0.4c-0.1,0.1-0.2,0.3-0.3,0.4
		C142.6,15.4,142.5,15.3,142.4,15.2z"/>
	<path class="st1" d="M143.3,13.1c0.2,0.4,0.3,0.8,0.5,1.1C143.6,13.9,143.5,13.5,143.3,13.1c0-0.1-0.1-0.2-0.1-0.3v0
		C143.2,12.9,143.3,13,143.3,13.1"/>
	<path class="st2" d="M143.3,13.1c0.2,0.4,0.3,0.8,0.5,1.1C143.6,13.9,143.5,13.5,143.3,13.1c0-0.1-0.1-0.2-0.1-0.3v0
		C143.2,12.9,143.3,13,143.3,13.1z"/>
	<path class="st1" d="M138.9,29.5L138.9,29.5c-0.4,0.2-0.8,0.4-1.2,0.6v0C138.1,29.9,138.5,29.7,138.9,29.5"/>
	<path class="st2" d="M138.9,29.5L138.9,29.5c-0.4,0.2-0.8,0.4-1.2,0.6v0C138.1,29.9,138.5,29.7,138.9,29.5z"/>
	<path class="st1" d="M141.2,19.4c0,0.1-0.1,0.1-0.1,0.2v0C141.1,19.5,141.1,19.4,141.2,19.4L141.2,19.4z"/>
	<path class="st2" d="M141.2,19.4c0,0.1-0.1,0.1-0.1,0.2v0C141.1,19.5,141.1,19.4,141.2,19.4L141.2,19.4z"/>
	<path class="st1" d="M141.1,19.3C141.1,19.3,141.1,19.3,141.1,19.3L141.1,19.3C141.1,19.3,141.1,19.3,141.1,19.3"/>
	<path class="st2" d="M141.1,19.3C141.1,19.3,141.1,19.3,141.1,19.3L141.1,19.3C141.1,19.3,141.1,19.3,141.1,19.3z"/>
	<path class="st1" d="M143,13.4L143,13.4c0.1,0.2,0.2,0.5,0.2,0.7c0,0,0,0.1,0,0.1c0,0,0-0.1,0-0.1C143.2,13.8,143.1,13.6,143,13.4"
		/>
	<path class="st2" d="M143,13.4L143,13.4c0.1,0.2,0.2,0.5,0.2,0.7c0,0,0,0.1,0,0.1c0,0,0-0.1,0-0.1C143.2,13.8,143.1,13.6,143,13.4z
		"/>
	<path class="st1" d="M143.8,14.2c-0.1-0.4-0.3-0.8-0.5-1.1c0-0.1-0.1-0.2-0.1-0.3l-0.2,0.6c0.1,0.2,0.2,0.5,0.2,0.7
		c0,0,0,0.1,0,0.1c0.1,0.3,0.2,0.5,0.3,0.8L143.8,14.2z"/>
	<path class="st2" d="M143.8,14.2c-0.1-0.4-0.3-0.8-0.5-1.1c0-0.1-0.1-0.2-0.1-0.3l-0.2,0.6c0.1,0.2,0.2,0.5,0.2,0.7
		c0,0,0,0.1,0,0.1c0.1,0.3,0.2,0.5,0.3,0.8L143.8,14.2z"/>
	<path class="st1" d="M141,19.5c0-0.1,0.1-0.1,0.1-0.2c0,0,0,0,0,0c0,0,0,0,0-0.1L141,19.5z"/>
	<path class="st2" d="M141,19.5c0-0.1,0.1-0.1,0.1-0.2c0,0,0,0,0,0c0,0,0,0,0-0.1L141,19.5z"/>
	<path class="st1" d="M143,15c-0.1-0.3-0.2-0.5-0.3-0.7C142.8,14.5,142.9,14.7,143,15"/>
	<path class="st2" d="M143,15c-0.1-0.3-0.2-0.5-0.3-0.7C142.8,14.5,142.9,14.7,143,15z"/>
	<path class="st1" d="M142.4,15.2c0.1,0.1,0.2,0.2,0.3,0.3c0.1-0.1,0.2-0.3,0.3-0.4c0,0,0-0.1,0-0.1c-0.1-0.2-0.2-0.5-0.3-0.7
		L142.4,15.2z"/>
	<path class="st2" d="M142.4,15.2c0.1,0.1,0.2,0.2,0.3,0.3c0.1-0.1,0.2-0.3,0.3-0.4c0,0,0-0.1,0-0.1c-0.1-0.2-0.2-0.5-0.3-0.7
		L142.4,15.2z"/>
	<path class="st1" d="M137.7,30l-0.2,0.6c0.4-0.3,0.9-0.5,1.3-0.8l0.1-0.4C138.5,29.7,138.1,29.9,137.7,30"/>
	<path class="st2" d="M137.7,30l-0.2,0.6c0.4-0.3,0.9-0.5,1.3-0.8l0.1-0.4C138.5,29.7,138.1,29.9,137.7,30z"/>
	<path class="st1" d="M144.8,18.1c-0.1-0.3-0.2-0.7-0.3-1C144.7,17.4,144.8,17.8,144.8,18.1"/>
	<path class="st2" d="M144.8,18.1c-0.1-0.3-0.2-0.7-0.3-1C144.7,17.4,144.8,17.8,144.8,18.1z"/>
	<path class="st1" d="M144.8,18.1C144.9,18.1,144.9,18.2,144.8,18.1C144.9,18.2,144.9,18.1,144.8,18.1"/>
	<path class="st2" d="M144.8,18.1C144.9,18.1,144.9,18.2,144.8,18.1C144.9,18.2,144.9,18.1,144.8,18.1z"/>
	<path class="st1" d="M140.4,28.9L140.4,28.9C140.4,28.9,140.4,28.9,140.4,28.9C140.4,29,140.4,29,140.4,28.9L140.4,28.9
		C140.4,29,140.4,29,140.4,28.9C140.4,28.9,140.4,28.9,140.4,28.9"/>
	<path class="st2" d="M140.4,28.9L140.4,28.9C140.4,28.9,140.4,28.9,140.4,28.9C140.4,29,140.4,29,140.4,28.9L140.4,28.9
		C140.4,29,140.4,29,140.4,28.9C140.4,28.9,140.4,28.9,140.4,28.9z"/>
	<path class="st1" d="M145.1,17.5L145.1,17.5c-0.2-0.5-0.4-0.9-0.7-1.1v0C144.7,16.6,144.9,17,145.1,17.5"/>
	<path class="st2" d="M145.1,17.5L145.1,17.5c-0.2-0.5-0.4-0.9-0.7-1.1v0C144.7,16.6,144.9,17,145.1,17.5z"/>
	<path class="st1" d="M140.9,28.7c0,0.1,0.1,0.1,0.1,0.2c0.1-0.1,0.2-0.1,0.4-0.2c0,0,0.1,0,0.1,0l0.2-0.5
		C141.4,28.3,141.2,28.5,140.9,28.7"/>
	<path class="st2" d="M140.9,28.7c0,0.1,0.1,0.1,0.1,0.2c0.1-0.1,0.2-0.1,0.4-0.2c0,0,0.1,0,0.1,0l0.2-0.5
		C141.4,28.3,141.2,28.5,140.9,28.7z"/>
	<path class="st1" d="M144.4,16.4L144.4,16.4c0.1,0.3,0.1,0.5,0.2,0.7C144.5,16.9,144.4,16.6,144.4,16.4"/>
	<path class="st2" d="M144.4,16.4L144.4,16.4c0.1,0.3,0.1,0.5,0.2,0.7C144.5,16.9,144.4,16.6,144.4,16.4z"/>
	<path class="st1" d="M145.1,17.5c-0.2-0.5-0.4-0.9-0.7-1.1l0,0c0.1,0.3,0.1,0.5,0.2,0.7c0.1,0.3,0.2,0.7,0.3,1c0,0,0,0,0,0.1
		L145.1,17.5z"/>
	<path class="st2" d="M145.1,17.5c-0.2-0.5-0.4-0.9-0.7-1.1l0,0c0.1,0.3,0.1,0.5,0.2,0.7c0.1,0.3,0.2,0.7,0.3,1c0,0,0,0,0,0.1
		L145.1,17.5z"/>
	<path class="st1" d="M140.4,29C140.4,29,140.4,28.9,140.4,29L140.4,29C140.4,29,140.4,29,140.4,29"/>
	<path class="st2" d="M140.4,29C140.4,29,140.4,28.9,140.4,29L140.4,29C140.4,29,140.4,29,140.4,29z"/>
	<path class="st1" d="M145.2,21.3c-0.1,0.5,0,1.1-0.1,1.7l0,0C145.1,22.4,145,21.8,145.2,21.3C145.2,21.3,145.2,21.3,145.2,21.3
		L145.2,21.3C145.2,21.3,145.2,21.3,145.2,21.3"/>
	<path class="st2" d="M145.2,21.3c-0.1,0.5,0,1.1-0.1,1.7l0,0C145.1,22.4,145,21.8,145.2,21.3C145.2,21.3,145.2,21.3,145.2,21.3
		L145.2,21.3C145.2,21.3,145.2,21.3,145.2,21.3z"/>
	<path class="st1" d="M143.9,27.2c-0.2,0-0.4,0.1-0.6,0.3l-0.3,0.8c0.3-0.1,0.6-0.2,0.9-0.2c0.1,0,0.1,0,0.2,0l0.4-1.3
		C144.4,27,144.2,27.1,143.9,27.2"/>
	<path class="st2" d="M143.9,27.2c-0.2,0-0.4,0.1-0.6,0.3l-0.3,0.8c0.3-0.1,0.6-0.2,0.9-0.2c0.1,0,0.1,0,0.2,0l0.4-1.3
		C144.4,27,144.2,27.1,143.9,27.2z"/>
	<path class="st1" d="M145.2,22.9C145.2,22.9,145.1,23,145.2,22.9L145.2,22.9c-0.3,1.2-0.5,2.3-0.6,3.4c0,0.1,0,0.1,0,0.2l0.7-2.1
		C145.3,23.9,145.2,23.4,145.2,22.9"/>
	<path class="st2" d="M145.2,22.9C145.2,22.9,145.1,23,145.2,22.9L145.2,22.9c-0.3,1.2-0.5,2.3-0.6,3.4c0,0.1,0,0.1,0,0.2l0.7-2.1
		C145.3,23.9,145.2,23.4,145.2,22.9z"/>
	<path class="st1" d="M145.1,23C145.1,23,145.2,22.9,145.1,23c0.3-0.9,0.4-1.8,0.4-2.8l-0.3,1c0,0,0,0,0,0.1
		C145,21.8,145.1,22.4,145.1,23"/>
	<path class="st2" d="M145.1,23C145.1,23,145.2,22.9,145.1,23c0.3-0.9,0.4-1.8,0.4-2.8l-0.3,1c0,0,0,0,0,0.1
		C145,21.8,145.1,22.4,145.1,23z"/>
</g>
</svg>
